<svg width="7" height="9" viewBox="0 0 7 9" fill="none" xmlns="http://www.w3.org/2000/svg">
<path d="M6.281 8.708C6.19233 8.708 6.11633 8.68267 6.053 8.632L0.942 5.269C0.840667 5.20567 0.764667 5.12967 0.714 5.041C0.663333 4.93967 0.638 4.83833 0.638 4.737C0.638 4.63567 0.663333 4.53433 0.714 4.433C0.777333 4.33167 0.853333 4.25567 0.942 4.205L6.053 0.823C6.11633 0.772333 6.19233 0.747 6.281 0.747C6.42033 0.747 6.55333 0.804 6.68 0.918C6.80667 1.032 6.87 1.17767 6.87 1.355C6.87 1.53233 6.80033 1.66533 6.661 1.754L2.139 4.737L6.661 7.72C6.80033 7.796 6.87 7.929 6.87 8.119C6.87 8.28367 6.80667 8.423 6.68 8.537C6.55333 8.651 6.42033 8.708 6.281 8.708Z" fill="black"/>
</svg>
