<svg width="31" height="33" viewBox="0 0 31 33" fill="none" xmlns="http://www.w3.org/2000/svg">
<mask id="path-1-inside-1_75_556" fill="white">
<path fill-rule="evenodd" clip-rule="evenodd" d="M27.725 23.1421C29.2434 20.7972 30.125 18.0015 30.125 15C30.125 6.71573 23.4093 0 15.125 0C6.84073 0 0.125 6.71573 0.125 15C0.125 23.2843 6.84073 30 15.125 30C17.3411 30 19.4449 29.5194 21.338 28.6568L27.725 33V23.1421Z"/>
</mask>
<path d="M27.725 23.1421L26.0462 22.055L25.725 22.5511V23.1421H27.725ZM21.338 28.6568L22.4626 27.003L21.5324 26.3704L20.5087 26.8369L21.338 28.6568ZM27.725 33L26.6004 34.6539L29.725 36.7786V33H27.725ZM28.125 15C28.125 17.6043 27.3613 20.0241 26.0462 22.055L29.4038 24.2291C31.1255 21.5702 32.125 18.3988 32.125 15H28.125ZM15.125 2C22.3047 2 28.125 7.8203 28.125 15H32.125C32.125 5.61116 24.5138 -2 15.125 -2V2ZM2.125 15C2.125 7.8203 7.9453 2 15.125 2V-2C5.73616 -2 -1.875 5.61116 -1.875 15H2.125ZM15.125 28C7.9453 28 2.125 22.1797 2.125 15H-1.875C-1.875 24.3888 5.73616 32 15.125 32V28ZM20.5087 26.8369C18.8708 27.5832 17.0493 28 15.125 28V32C17.6329 32 20.0191 31.4557 22.1673 30.4768L20.5087 26.8369ZM20.2134 30.3107L26.6004 34.6539L28.8496 31.3461L22.4626 27.003L20.2134 30.3107ZM29.725 33V23.1421H25.725V33H29.725Z" fill="#C4C4C4" mask="url(#path-1-inside-1_75_556)"/>
</svg>
