<svg width="31" height="33" viewBox="0 0 31 33" fill="none" xmlns="http://www.w3.org/2000/svg">
<mask id="path-1-inside-1_75_581" fill="white">
<path fill-rule="evenodd" clip-rule="evenodd" d="M27.9834 23.1421C29.5018 20.7972 30.3834 18.0015 30.3834 15C30.3834 6.71573 23.6677 0 15.3834 0C7.09915 0 0.383423 6.71573 0.383423 15C0.383423 23.2843 7.09915 30 15.3834 30C17.5995 30 19.7033 29.5194 21.5964 28.6568L27.9834 33V23.1421Z"/>
</mask>
<path fill-rule="evenodd" clip-rule="evenodd" d="M27.9834 23.1421C29.5018 20.7972 30.3834 18.0015 30.3834 15C30.3834 6.71573 23.6677 0 15.3834 0C7.09915 0 0.383423 6.71573 0.383423 15C0.383423 23.2843 7.09915 30 15.3834 30C17.5995 30 19.7033 29.5194 21.5964 28.6568L27.9834 33V23.1421Z" fill="white"/>
<path d="M27.9834 23.1421L26.3046 22.055L25.9834 22.5511V23.1421H27.9834ZM21.5964 28.6568L22.721 27.003L21.7908 26.3704L20.7671 26.8369L21.5964 28.6568ZM27.9834 33L26.8588 34.6539L29.9834 36.7786V33H27.9834ZM28.3834 15C28.3834 17.6043 27.6197 20.0241 26.3046 22.055L29.6622 24.2291C31.3839 21.5702 32.3834 18.3988 32.3834 15H28.3834ZM15.3834 2C22.5631 2 28.3834 7.8203 28.3834 15H32.3834C32.3834 5.61116 24.7723 -2 15.3834 -2V2ZM2.38342 15C2.38342 7.8203 8.20372 2 15.3834 2V-2C5.99458 -2 -1.61658 5.61116 -1.61658 15H2.38342ZM15.3834 28C8.20372 28 2.38342 22.1797 2.38342 15H-1.61658C-1.61658 24.3888 5.99458 32 15.3834 32V28ZM20.7671 26.8369C19.1292 27.5832 17.3077 28 15.3834 28V32C17.8913 32 20.2775 31.4557 22.4257 30.4768L20.7671 26.8369ZM20.4718 30.3107L26.8588 34.6539L29.108 31.3461L22.721 27.003L20.4718 30.3107ZM29.9834 33V23.1421H25.9834V33H29.9834Z" fill="white" mask="url(#path-1-inside-1_75_581)"/>
</svg>
