<svg width="26" height="20" viewBox="0 0 26 20" fill="none" xmlns="http://www.w3.org/2000/svg">
<path d="M21.5949 1.61179C19.969 0.865764 18.2255 0.316123 16.4025 0.00132056C16.3693 -0.00475503 16.3362 0.0104282 16.3191 0.0407954C16.0949 0.439611 15.8465 0.959898 15.6725 1.36884C13.7118 1.0753 11.7612 1.0753 9.84066 1.36884C9.66669 0.950808 9.4093 0.439611 9.18406 0.0407954C9.16695 0.0114414 9.13379 -0.00374184 9.10059 0.00132056C7.27864 0.315117 5.53511 0.864758 3.90821 1.61179C3.89413 1.61787 3.88205 1.628 3.87404 1.64115C0.566941 6.58188 -0.339012 11.4012 0.105418 16.1607C0.107429 16.184 0.120501 16.2063 0.1386 16.2204C2.32053 17.8228 4.4341 18.7956 6.50843 19.4404C6.54163 19.4505 6.5768 19.4384 6.59793 19.411C7.08861 18.7409 7.52601 18.0344 7.90103 17.2914C7.92317 17.2479 7.90204 17.1962 7.8568 17.179C7.16302 16.9158 6.50239 16.595 5.86691 16.2306C5.81665 16.2012 5.81263 16.1293 5.85887 16.0949C5.99259 15.9947 6.12636 15.8904 6.25405 15.7852C6.27715 15.7659 6.30934 15.7619 6.33651 15.774C10.5113 17.6801 15.031 17.6801 19.1566 15.774C19.1837 15.7609 19.2159 15.7649 19.24 15.7842C19.3678 15.8894 19.5015 15.9947 19.6362 16.0949C19.6825 16.1293 19.6795 16.2012 19.6292 16.2306C18.9937 16.602 18.3331 16.9158 17.6383 17.178C17.5931 17.1952 17.5729 17.2479 17.5951 17.2914C17.9781 18.0333 18.4155 18.7399 18.8972 19.41C18.9173 19.4384 18.9535 19.4505 18.9867 19.4404C21.0711 18.7956 23.1846 17.8228 25.3665 16.2204C25.3857 16.2063 25.3977 16.185 25.3997 16.1617C25.9316 10.6592 24.5088 5.8794 21.6281 1.64215C21.6211 1.628 21.609 1.61787 21.5949 1.61179ZM8.52447 13.2627C7.26757 13.2627 6.23192 12.1087 6.23192 10.6916C6.23192 9.27444 7.24749 8.12051 8.52447 8.12051C9.81149 8.12051 10.8371 9.28457 10.817 10.6916C10.817 12.1087 9.80142 13.2627 8.52447 13.2627ZM17.0008 13.2627C15.7439 13.2627 14.7083 12.1087 14.7083 10.6916C14.7083 9.27444 15.7238 8.12051 17.0008 8.12051C18.2878 8.12051 19.3134 9.28457 19.2934 10.6916C19.2934 12.1087 18.2878 13.2627 17.0008 13.2627Z" fill="white"/>
</svg>
