<svg width="57" height="41" viewBox="0 0 57 41" fill="none" xmlns="http://www.w3.org/2000/svg">
<rect width="57" height="41" rx="20.5" fill="black"/>
<path d="M37.5949 12.6118C35.969 11.8658 34.2255 11.3161 32.4025 11.0013C32.3693 10.9952 32.3362 11.0104 32.3191 11.0408C32.0949 11.4396 31.8465 11.9599 31.6725 12.3688C29.7118 12.0753 27.7612 12.0753 25.8407 12.3688C25.6667 11.9508 25.4093 11.4396 25.1841 11.0408C25.167 11.0114 25.1338 10.9963 25.1006 11.0013C23.2786 11.3151 21.5351 11.8648 19.9082 12.6118C19.8941 12.6179 19.8821 12.628 19.874 12.6411C16.5669 17.5819 15.661 22.4012 16.1054 27.1607C16.1074 27.184 16.1205 27.2063 16.1386 27.2204C18.3205 28.8228 20.4341 29.7956 22.5084 30.4404C22.5416 30.4505 22.5768 30.4384 22.5979 30.411C23.0886 29.7409 23.526 29.0344 23.901 28.2914C23.9232 28.2479 23.902 28.1962 23.8568 28.179C23.163 27.9158 22.5024 27.595 21.8669 27.2306C21.8167 27.2012 21.8126 27.1293 21.8589 27.0949C21.9926 26.9947 22.1264 26.8904 22.254 26.7852C22.2772 26.7659 22.3093 26.7619 22.3365 26.774C26.5113 28.6801 31.031 28.6801 35.1566 26.774C35.1837 26.7609 35.2159 26.7649 35.24 26.7842C35.3678 26.8894 35.5015 26.9947 35.6362 27.0949C35.6825 27.1293 35.6795 27.2012 35.6292 27.2306C34.9937 27.602 34.3331 27.9158 33.6383 28.178C33.5931 28.1952 33.5729 28.2479 33.5951 28.2914C33.9781 29.0333 34.4155 29.7399 34.8972 30.41C34.9173 30.4384 34.9535 30.4505 34.9867 30.4404C37.0711 29.7956 39.1846 28.8228 41.3665 27.2204C41.3857 27.2063 41.3977 27.185 41.3997 27.1617C41.9316 21.6592 40.5088 16.8794 37.6281 12.6422C37.6211 12.628 37.609 12.6179 37.5949 12.6118ZM24.5245 24.2627C23.2676 24.2627 22.2319 23.1087 22.2319 21.6916C22.2319 20.2744 23.2475 19.1205 24.5245 19.1205C25.8115 19.1205 26.8371 20.2846 26.817 21.6916C26.817 23.1087 25.8014 24.2627 24.5245 24.2627ZM33.0008 24.2627C31.7439 24.2627 30.7083 23.1087 30.7083 21.6916C30.7083 20.2744 31.7238 19.1205 33.0008 19.1205C34.2878 19.1205 35.3134 20.2846 35.2934 21.6916C35.2934 23.1087 34.2878 24.2627 33.0008 24.2627Z" fill="white"/>
</svg>
