<svg width="153" height="154" viewBox="0 0 153 154" fill="none" xmlns="http://www.w3.org/2000/svg">
<rect x="0.125" width="152" height="154" rx="24" fill="black"/>
<path d="M30.997 77C30.7197 77 30.4957 76.936 30.325 76.808C30.165 76.68 30.085 76.5253 30.085 76.344V65.96C30.085 65.7787 30.165 65.624 30.325 65.496C30.4957 65.368 30.7197 65.304 30.997 65.304H33.829C34.5437 65.304 35.1837 65.4267 35.749 65.672C36.3143 65.9067 36.7623 66.296 37.093 66.84C37.4343 67.3733 37.605 68.088 37.605 68.984V73.32C37.605 74.216 37.4343 74.936 37.093 75.48C36.7623 76.0133 36.3143 76.4027 35.749 76.648C35.1837 76.8827 34.5437 77 33.829 77H30.997ZM32.165 75.176H33.829C34.3623 75.176 34.7783 75.0267 35.077 74.728C35.3757 74.4187 35.525 73.9493 35.525 73.32V68.984C35.525 68.3547 35.3757 67.8907 35.077 67.592C34.7783 67.2827 34.3677 67.128 33.845 67.128H32.165V75.176ZM43.0139 77.096C42.3099 77.096 41.6752 76.9787 41.1099 76.744C40.5445 76.4987 40.0912 76.1093 39.7499 75.576C39.4192 75.032 39.2539 74.312 39.2539 73.416V68.984C39.2539 68.088 39.4192 67.3733 39.7499 66.84C40.0912 66.296 40.5392 65.9067 41.0939 65.672C41.6592 65.4267 42.2992 65.304 43.0139 65.304C43.7179 65.304 44.3525 65.4267 44.9179 65.672C45.4939 65.9067 45.9472 66.296 46.2779 66.84C46.6085 67.3733 46.7739 68.088 46.7739 68.984V73.416C46.7739 74.312 46.6085 75.032 46.2779 75.576C45.9472 76.1093 45.4939 76.4987 44.9179 76.744C44.3525 76.9787 43.7179 77.096 43.0139 77.096ZM43.0139 75.272C43.5365 75.272 43.9472 75.1227 44.2459 74.824C44.5445 74.5253 44.6939 74.056 44.6939 73.416V68.984C44.6939 68.344 44.5445 67.8747 44.2459 67.576C43.9472 67.2773 43.5365 67.128 43.0139 67.128C42.4912 67.128 42.0805 67.2773 41.7819 67.576C41.4939 67.8747 41.3499 68.344 41.3499 68.984V73.416C41.3499 74.056 41.4939 74.5253 41.7819 74.824C42.0805 75.1227 42.4912 75.272 43.0139 75.272ZM49.6094 77C49.3534 77 49.1134 76.9467 48.8894 76.84C48.676 76.7227 48.5694 76.552 48.5694 76.328V65.96C48.5694 65.736 48.676 65.5707 48.8894 65.464C49.1134 65.3573 49.3534 65.304 49.6094 65.304C49.8654 65.304 50.0734 65.3307 50.2334 65.384C50.404 65.4373 50.5587 65.544 50.6974 65.704C50.8467 65.8533 51.0014 66.088 51.1614 66.408L54.2494 72.376V65.96C54.2494 65.7253 54.356 65.56 54.5694 65.464C54.7934 65.3573 55.0334 65.304 55.2894 65.304C55.556 65.304 55.796 65.3573 56.0094 65.464C56.2227 65.56 56.3294 65.7253 56.3294 65.96V76.328C56.3294 76.552 56.2227 76.7227 56.0094 76.84C55.796 76.9467 55.556 77 55.2894 77C55.044 77 54.8147 76.952 54.6014 76.856C54.3987 76.76 54.2334 76.5893 54.1054 76.344L50.6494 69.912V76.328C50.6494 76.552 50.5427 76.7227 50.3294 76.84C50.116 76.9467 49.876 77 49.6094 77ZM59.1845 77C58.9072 77 58.6832 76.936 58.5125 76.808C58.3525 76.68 58.2725 76.5253 58.2725 76.344V65.96C58.2725 65.7787 58.3525 65.624 58.5125 65.496C58.6832 65.368 58.9072 65.304 59.1845 65.304H62.0165C62.7312 65.304 63.3712 65.4267 63.9365 65.672C64.5018 65.9067 64.9498 66.296 65.2805 66.84C65.6218 67.3733 65.7925 68.088 65.7925 68.984V73.32C65.7925 74.216 65.6218 74.936 65.2805 75.48C64.9498 76.0133 64.5018 76.4027 63.9365 76.648C63.3712 76.8827 62.7312 77 62.0165 77H59.1845ZM60.3525 75.176H62.0165C62.5498 75.176 62.9658 75.0267 63.2645 74.728C63.5632 74.4187 63.7125 73.9493 63.7125 73.32V68.984C63.7125 68.3547 63.5632 67.8907 63.2645 67.592C62.9658 67.2827 62.5552 67.128 62.0325 67.128H60.3525V75.176ZM68.0654 77C67.8734 77 67.676 76.9627 67.4734 76.888C67.2707 76.8133 67.1 76.712 66.9614 76.584C66.8227 76.456 66.7534 76.3067 66.7534 76.136C66.7534 76.104 66.7587 76.0507 66.7694 75.976L69.8574 65.912C69.932 65.6773 70.0974 65.5013 70.3534 65.384C70.62 65.2667 70.9027 65.208 71.2014 65.208C71.5107 65.208 71.7934 65.2667 72.0494 65.384C72.3054 65.5013 72.4707 65.6773 72.5454 65.912L75.6334 75.976C75.6547 76.0507 75.6654 76.104 75.6654 76.136C75.6654 76.296 75.5907 76.4453 75.4414 76.584C75.3027 76.712 75.132 76.8133 74.9294 76.888C74.7267 76.9627 74.5294 77 74.3374 77C74.1667 77 74.0174 76.9733 73.8894 76.92C73.772 76.856 73.692 76.744 73.6494 76.584L73.0414 74.456H69.3614L68.7694 76.584C68.7267 76.744 68.6414 76.856 68.5134 76.92C68.3854 76.9733 68.236 77 68.0654 77ZM69.8094 72.824H72.5934L71.2014 67.912L69.8094 72.824ZM77.7649 77C77.4662 77 77.2209 76.9307 77.0289 76.792C76.8369 76.6533 76.7409 76.4987 76.7409 76.328V65.608C76.7409 65.416 76.8369 65.2613 77.0289 65.144C77.2209 65.0267 77.4662 64.968 77.7649 64.968C78.0529 64.968 78.2982 65.0267 78.5009 65.144C78.7035 65.2613 78.8049 65.416 78.8049 65.608V76.328C78.8049 76.4987 78.7035 76.6533 78.5009 76.792C78.2982 76.9307 78.0529 77 77.7649 77ZM81.574 67.704C81.2647 67.704 80.998 67.6027 80.774 67.4C80.55 67.1867 80.438 66.952 80.438 66.696C80.438 66.4187 80.55 66.184 80.774 65.992C80.998 65.7893 81.2647 65.688 81.574 65.688C81.894 65.688 82.1607 65.7893 82.374 65.992C82.5873 66.184 82.694 66.4187 82.694 66.696C82.694 66.952 82.5873 67.1867 82.374 67.4C82.1607 67.6027 81.894 67.704 81.574 67.704ZM81.574 77C81.2753 77 81.03 76.9307 80.838 76.792C80.646 76.6533 80.55 76.4987 80.55 76.328V70.04C80.55 69.848 80.646 69.6933 80.838 69.576C81.03 69.4587 81.2753 69.4 81.574 69.4C81.862 69.4 82.1073 69.4587 82.31 69.576C82.5127 69.6933 82.614 69.848 82.614 70.04V76.328C82.614 76.4987 82.5127 76.6533 82.31 76.792C82.1073 76.9307 81.862 77 81.574 77ZM87.4066 77.144C86.596 77.144 85.9346 77 85.4226 76.712C84.9106 76.424 84.532 76.0347 84.2866 75.544C84.0413 75.0427 83.9186 74.4827 83.9186 73.864V72.584C83.9186 71.9653 84.036 71.4107 84.2706 70.92C84.516 70.4187 84.8946 70.024 85.4066 69.736C85.9293 69.448 86.5853 69.304 87.3746 69.304C87.876 69.304 88.3186 69.3627 88.7026 69.48C89.0866 69.5973 89.3906 69.752 89.6146 69.944C89.8386 70.136 89.9506 70.3387 89.9506 70.552C89.9506 70.68 89.9133 70.824 89.8386 70.984C89.7746 71.1333 89.6786 71.2667 89.5506 71.384C89.4333 71.5013 89.2946 71.56 89.1346 71.56C89.0173 71.56 88.8946 71.5227 88.7666 71.448C88.6493 71.3733 88.4946 71.2987 88.3026 71.224C88.1106 71.1493 87.8546 71.112 87.5346 71.112C86.9906 71.112 86.596 71.2453 86.3506 71.512C86.1053 71.768 85.9826 72.1253 85.9826 72.584V73.864C85.9826 74.3227 86.1053 74.6853 86.3506 74.952C86.596 75.208 86.996 75.336 87.5506 75.336C87.8813 75.336 88.1373 75.2933 88.3186 75.208C88.5 75.1227 88.6493 75.0427 88.7666 74.968C88.8946 74.8933 89.0226 74.856 89.1506 74.856C89.3426 74.856 89.5026 74.9093 89.6306 75.016C89.7693 75.1227 89.8706 75.256 89.9346 75.416C90.0093 75.5653 90.0466 75.704 90.0466 75.832C90.0466 76.0453 89.9293 76.2533 89.6946 76.456C89.4706 76.6587 89.156 76.824 88.7506 76.952C88.356 77.08 87.908 77.144 87.4066 77.144ZM92.1365 67.704C91.8272 67.704 91.5605 67.6027 91.3365 67.4C91.1125 67.1867 91.0005 66.952 91.0005 66.696C91.0005 66.4187 91.1125 66.184 91.3365 65.992C91.5605 65.7893 91.8272 65.688 92.1365 65.688C92.4565 65.688 92.7232 65.7893 92.9365 65.992C93.1498 66.184 93.2565 66.4187 93.2565 66.696C93.2565 66.952 93.1498 67.1867 92.9365 67.4C92.7232 67.6027 92.4565 67.704 92.1365 67.704ZM92.1365 77C91.8378 77 91.5925 76.9307 91.4005 76.792C91.2085 76.6533 91.1125 76.4987 91.1125 76.328V70.04C91.1125 69.848 91.2085 69.6933 91.4005 69.576C91.5925 69.4587 91.8378 69.4 92.1365 69.4C92.4245 69.4 92.6698 69.4587 92.8725 69.576C93.0752 69.6933 93.1765 69.848 93.1765 70.04V76.328C93.1765 76.4987 93.0752 76.6533 92.8725 76.792C92.6698 76.9307 92.4245 77 92.1365 77ZM97.9211 77.144C97.3025 77.144 96.7318 76.9947 96.2091 76.696C95.6865 76.3867 95.2651 75.9813 94.9451 75.48C94.6251 74.9787 94.4651 74.44 94.4651 73.864V72.552C94.4651 71.976 94.6198 71.4427 94.9291 70.952C95.2385 70.4507 95.6545 70.0507 96.1771 69.752C96.7105 69.4533 97.2918 69.304 97.9211 69.304C98.5505 69.304 99.1265 69.4533 99.6491 69.752C100.182 70.04 100.604 70.4293 100.913 70.92C101.233 71.4107 101.393 71.9547 101.393 72.552V73.864C101.393 74.4293 101.233 74.9627 100.913 75.464C100.593 75.9653 100.166 76.3707 99.6331 76.68C99.1105 76.9893 98.5398 77.144 97.9211 77.144ZM97.9211 75.336C98.1771 75.336 98.4118 75.2667 98.6251 75.128C98.8385 74.9893 99.0091 74.808 99.1371 74.584C99.2651 74.3493 99.3291 74.1093 99.3291 73.864V72.552C99.3291 72.3067 99.2651 72.0773 99.1371 71.864C99.0091 71.6507 98.8385 71.4747 98.6251 71.336C98.4225 71.1867 98.1878 71.112 97.9211 71.112C97.6651 71.112 97.4305 71.1813 97.2171 71.32C97.0038 71.4587 96.8331 71.64 96.7051 71.864C96.5878 72.0773 96.5291 72.3067 96.5291 72.552V73.864C96.5291 74.1093 96.5878 74.3493 96.7051 74.584C96.8331 74.808 97.0038 74.9893 97.2171 75.128C97.4305 75.2667 97.6651 75.336 97.9211 75.336ZM106.114 77.144C105.474 77.144 104.888 76.9947 104.354 76.696C103.832 76.3867 103.41 75.9867 103.09 75.496C102.781 74.9947 102.626 74.4613 102.626 73.896V70.056C102.626 69.896 102.728 69.7467 102.93 69.608C103.144 69.4693 103.389 69.4 103.666 69.4C103.944 69.4 104.184 69.4693 104.386 69.608C104.589 69.7467 104.69 69.896 104.69 70.056V73.896C104.69 74.1413 104.754 74.3707 104.882 74.584C105.01 74.7973 105.181 74.9787 105.394 75.128C105.608 75.2667 105.842 75.336 106.098 75.336C106.365 75.336 106.6 75.2667 106.802 75.128C107.016 74.9893 107.186 74.808 107.314 74.584C107.442 74.36 107.506 74.1307 107.506 73.896V70.04C107.506 69.8693 107.608 69.72 107.81 69.592C108.024 69.464 108.264 69.4 108.53 69.4C108.84 69.4 109.09 69.464 109.282 69.592C109.474 69.72 109.57 69.8693 109.57 70.04V73.896C109.57 74.472 109.41 75.0107 109.09 75.512C108.781 76.0027 108.36 76.3973 107.826 76.696C107.304 76.9947 106.733 77.144 106.114 77.144ZM113.577 77.144C113.044 77.144 112.553 77.08 112.105 76.952C111.668 76.8133 111.321 76.6373 111.065 76.424C110.82 76.2107 110.697 75.992 110.697 75.768C110.697 75.6507 110.724 75.5227 110.777 75.384C110.841 75.2453 110.921 75.1227 111.017 75.016C111.124 74.9093 111.246 74.856 111.385 74.856C111.534 74.856 111.689 74.92 111.849 75.048C112.02 75.1653 112.228 75.2827 112.473 75.4C112.729 75.5173 113.081 75.576 113.529 75.576C114.009 75.576 114.324 75.5013 114.473 75.352C114.633 75.2027 114.713 75.048 114.713 74.888C114.713 74.6533 114.617 74.472 114.425 74.344C114.244 74.216 114.009 74.1147 113.721 74.04C113.433 73.9547 113.124 73.864 112.793 73.768C112.473 73.672 112.169 73.5493 111.881 73.4C111.593 73.24 111.358 73.0267 111.177 72.76C110.996 72.4827 110.905 72.1253 110.905 71.688C110.905 71.304 110.996 70.9307 111.177 70.568C111.358 70.2053 111.657 69.9067 112.073 69.672C112.489 69.4267 113.054 69.304 113.769 69.304C114.206 69.304 114.617 69.352 115.001 69.448C115.396 69.5333 115.716 69.656 115.961 69.816C116.206 69.976 116.329 70.152 116.329 70.344C116.329 70.44 116.297 70.568 116.233 70.728C116.169 70.8773 116.078 71.016 115.961 71.144C115.854 71.272 115.721 71.336 115.561 71.336C115.444 71.336 115.3 71.2987 115.129 71.224C114.969 71.1387 114.782 71.0587 114.569 70.984C114.356 70.9093 114.1 70.872 113.801 70.872C113.534 70.872 113.321 70.9093 113.161 70.984C113.001 71.0587 112.884 71.1493 112.809 71.256C112.734 71.3627 112.697 71.4747 112.697 71.592C112.697 71.784 112.788 71.9333 112.969 72.04C113.15 72.1467 113.385 72.2373 113.673 72.312C113.972 72.3867 114.281 72.472 114.601 72.568C114.932 72.6533 115.241 72.7813 115.529 72.952C115.828 73.1227 116.068 73.3573 116.249 73.656C116.43 73.944 116.521 74.3227 116.521 74.792C116.521 75.5067 116.265 76.0773 115.753 76.504C115.252 76.9307 114.526 77.144 113.577 77.144Z" fill="white"/>
</svg>
