<svg width="29" height="28" viewBox="0 0 29 28" fill="none" xmlns="http://www.w3.org/2000/svg">
<path d="M14.125 8.65824L13.2324 6.89086C12.1684 4.78417 10.7279 3.63588 9.29296 3.15277C7.84706 2.66597 6.32635 2.82616 5.04909 3.48015C3.77199 4.13406 2.75358 5.27377 2.30503 6.73374C1.85978 8.18291 1.95205 10.0298 3.04704 12.139L14.125 8.65824ZM14.125 8.65824L15.0176 6.89086M14.125 8.65824L15.0176 6.89086M15.0176 6.89086C16.0816 4.78417 17.5221 3.63588 18.957 3.15277C20.4029 2.66597 21.9236 2.82616 23.2009 3.48015C24.478 4.13406 25.4964 5.27377 25.945 6.73374C26.3902 8.18297 26.2979 10.03 25.2028 12.1393C24.175 14.1155 22.245 16.5127 20.1091 18.8343M15.0176 6.89086L20.1091 18.8343M20.1091 18.8343C18.0104 21.1155 15.7709 23.2622 14.1342 24.7713M20.1091 18.8343L14.1342 24.7713M14.1342 24.7713C12.4892 23.2631 10.2445 21.1158 8.1429 18.8339C6.00495 16.5126 4.0749 14.1154 3.04718 12.1393L14.1342 24.7713Z" stroke="black" stroke-width="2"/>
</svg>
