<svg width="26" height="33" viewBox="0 0 26 33" fill="none" xmlns="http://www.w3.org/2000/svg">
<mask id="path-1-inside-1_40_898" fill="white">
<path fill-rule="evenodd" clip-rule="evenodd" d="M25.7625 11.55L13 0L0.23752 11.55H0V33H26V11.55H25.7625ZM10 21.45H17V33H10V21.45Z"/>
</mask>
<path fill-rule="evenodd" clip-rule="evenodd" d="M25.7625 11.55L13 0L0.23752 11.55H0V33H26V11.55H25.7625ZM10 21.45H17V33H10V21.45Z" fill="#C4C4C4"/>
<path d="M13 0L14.342 -1.4829L13 -2.69742L11.658 -1.4829L13 0ZM25.7625 11.55L24.4205 13.0329L24.9918 13.55H25.7625V11.55ZM0.23752 11.55V13.55H1.00815L1.57954 13.0329L0.23752 11.55ZM0 11.55V9.55H-2V11.55H0ZM0 33H-2V35H0V33ZM26 33V35H28V33H26ZM26 11.55H28V9.55H26V11.55ZM17 21.45H19V19.45H17V21.45ZM10 21.45V19.45H8V21.45H10ZM17 33V35H19V33H17ZM10 33H8V35H10V33ZM11.658 1.4829L24.4205 13.0329L27.1045 10.0671L14.342 -1.4829L11.658 1.4829ZM1.57954 13.0329L14.342 1.4829L11.658 -1.4829L-1.1045 10.0671L1.57954 13.0329ZM0.23752 9.55H0V13.55H0.23752V9.55ZM-2 11.55V33H2V11.55H-2ZM0 35H26V31H0V35ZM28 33V11.55H24V33H28ZM26 9.55H25.7625V13.55H26V9.55ZM17 19.45H10V23.45H17V19.45ZM19 33V21.45H15V33H19ZM10 35H17V31H10V35ZM8 21.45V33H12V21.45H8Z" fill="#C4C4C4" mask="url(#path-1-inside-1_40_898)"/>
</svg>
