<svg width="30" height="26" viewBox="0 0 30 26" fill="none" xmlns="http://www.w3.org/2000/svg">
<path fill-rule="evenodd" clip-rule="evenodd" d="M29.125 1.99988L29.125 1.00012L10.125 1L10.125 1.99988V2.5L10.125 4H10.125V13.8026C9.24248 13.2921 8.21786 12.9999 7.125 12.9999C3.81129 12.9999 1.125 15.6862 1.125 18.9999C1.125 22.3136 3.81129 24.9999 7.125 24.9999C10.4387 24.9999 13.125 22.3136 13.125 18.9999V4.00002L26.125 4.0001V13.8026C25.2425 13.2921 24.2179 12.9999 23.125 12.9999C19.8113 12.9999 17.125 15.6862 17.125 18.9999C17.125 22.3136 19.8113 24.9999 23.125 24.9999C26.4387 24.9999 29.125 22.3136 29.125 18.9999V1.99988Z" fill="black"/>
<path d="M29.125 1.00012L29.625 1.00013L29.625 0.500125L29.125 0.500122L29.125 1.00012ZM29.125 1.99988L28.625 1.99987V1.99988H29.125ZM10.125 1L10.125 0.5L9.62501 0.499997L9.62501 0.999995L10.125 1ZM10.125 1.99988L9.625 1.99987V1.99988H10.125ZM10.125 2.5L10.625 2.5V2.5H10.125ZM10.125 4L9.62499 4L9.62499 4.5H10.125V4ZM10.125 4H10.625V3.5H10.125V4ZM10.125 13.8026L9.87464 14.2354L10.625 14.6694V13.8026H10.125ZM13.125 4.00002L13.125 3.50002L12.625 3.50002V4.00002H13.125ZM26.125 4.0001H26.625V3.50011L26.125 3.5001L26.125 4.0001ZM26.125 13.8026L25.8746 14.2354L26.625 14.6694V13.8026H26.125ZM28.625 1.00012L28.625 1.99987L29.625 1.99988L29.625 1.00013L28.625 1.00012ZM10.125 1.5L29.125 1.50012L29.125 0.500122L10.125 0.5L10.125 1.5ZM10.625 1.99988L10.625 1L9.62501 0.999995L9.625 1.99987L10.625 1.99988ZM10.625 2.5V1.99988H9.625V2.5H10.625ZM10.625 4L10.625 2.5L9.625 2.5L9.62499 4L10.625 4ZM10.125 3.5H10.125V4.5H10.125V3.5ZM10.625 13.8026V4H9.625V13.8026H10.625ZM7.125 13.4999C8.12762 13.4999 9.06617 13.7677 9.87464 14.2354L10.3754 13.3698C9.41879 12.8164 8.3081 12.4999 7.125 12.4999V13.4999ZM1.625 18.9999C1.625 15.9623 4.08743 13.4999 7.125 13.4999V12.4999C3.53515 12.4999 0.625 15.41 0.625 18.9999H1.625ZM7.125 24.4999C4.08743 24.4999 1.625 22.0374 1.625 18.9999H0.625C0.625 22.5897 3.53515 25.4999 7.125 25.4999V24.4999ZM12.625 18.9999C12.625 22.0374 10.1626 24.4999 7.125 24.4999V25.4999C10.7149 25.4999 13.625 22.5897 13.625 18.9999H12.625ZM12.625 4.00002V18.9999H13.625V4.00002H12.625ZM26.125 3.5001L13.125 3.50002L13.125 4.50002L26.125 4.5001L26.125 3.5001ZM26.625 13.8026V4.0001H25.625V13.8026H26.625ZM23.125 13.4999C24.1276 13.4999 25.0662 13.7677 25.8746 14.2354L26.3754 13.3698C25.4188 12.8164 24.3081 12.4999 23.125 12.4999V13.4999ZM17.625 18.9999C17.625 15.9623 20.0874 13.4999 23.125 13.4999V12.4999C19.5351 12.4999 16.625 15.41 16.625 18.9999H17.625ZM23.125 24.4999C20.0874 24.4999 17.625 22.0374 17.625 18.9999H16.625C16.625 22.5897 19.5351 25.4999 23.125 25.4999V24.4999ZM28.625 18.9999C28.625 22.0374 26.1626 24.4999 23.125 24.4999V25.4999C26.7149 25.4999 29.625 22.5897 29.625 18.9999H28.625ZM28.625 1.99988V18.9999H29.625V1.99988H28.625Z" fill="black"/>
</svg>
