<svg width="35" height="35" viewBox="0 0 35 35" fill="none" xmlns="http://www.w3.org/2000/svg">
<path d="M30.9397 14.4301C30.2827 9.15045 26.098 4.96577 20.8184 4.30875C20.0191 4.20928 19.3629 4.87176 19.3629 5.67718V15.1563C19.3629 15.5591 19.6894 15.8855 20.0921 15.8855H29.5713C30.3767 15.8855 31.0391 15.2293 30.9397 14.4301Z" fill="white"/>
<path d="M16.4462 6.40635C9.60022 6.40635 4.05042 11.9562 4.05042 18.8022C4.05042 25.6482 9.60022 31.198 16.4462 31.198C23.2923 31.198 28.8421 25.6482 28.8421 18.8022C28.8421 18.3995 28.5156 18.073 28.1129 18.073H17.9046C17.5019 18.073 17.1754 17.7466 17.1754 17.3439V7.13552C17.1754 6.73281 16.849 6.40635 16.4462 6.40635Z" fill="white"/>
</svg>
