<svg width="17" height="19" viewBox="0 0 17 19" fill="none" xmlns="http://www.w3.org/2000/svg">
<path fill-rule="evenodd" clip-rule="evenodd" d="M3.83871 4.75586C3.83871 2.12927 5.92564 0 8.5 0C11.0744 0 13.1613 2.12927 13.1613 4.75586C13.1613 7.38245 11.0744 9.51172 8.5 9.51172C5.92564 9.51172 3.83871 7.38245 3.83871 4.75586ZM8.5 1.67854C6.83424 1.67854 5.48387 3.0563 5.48387 4.75586C5.48387 6.45542 6.83424 7.83318 8.5 7.83318C10.1658 7.83318 11.5161 6.45542 11.5161 4.75586C11.5161 3.0563 10.1658 1.67854 8.5 1.67854Z" fill="black"/>
<path fill-rule="evenodd" clip-rule="evenodd" d="M4.1129 12.8688C2.75001 12.8688 1.64516 13.9961 1.64516 15.3866V16.7163C1.64516 16.7366 1.65954 16.7538 1.67913 16.7571C6.19647 17.5096 10.8035 17.5096 15.3209 16.7571C15.3405 16.7538 15.3548 16.7366 15.3548 16.7163V15.3866C15.3548 13.9961 14.25 12.8688 12.8871 12.8688H12.5132C12.4843 12.8688 12.4556 12.8735 12.4281 12.8826L11.4789 13.1989C9.54324 13.8437 7.45676 13.8437 5.52114 13.1989L4.57187 12.8826C4.54439 12.8735 4.51567 12.8688 4.48676 12.8688H4.1129ZM0 15.3866C0 13.069 1.84141 11.1903 4.1129 11.1903H4.48676C4.68911 11.1903 4.89018 11.2229 5.08253 11.287L6.0318 11.6032C7.6356 12.1376 9.3644 12.1376 10.9682 11.6032L11.9175 11.287C12.1098 11.2229 12.3109 11.1903 12.5132 11.1903H12.8871C15.1586 11.1903 17 13.069 17 15.3866V16.7163C17 17.5592 16.4013 18.2779 15.586 18.4137C10.8931 19.1954 6.10695 19.1954 1.41404 18.4137C0.598711 18.2779 0 17.5592 0 16.7163V15.3866Z" fill="black"/>
</svg>
