<svg width="22" height="23" viewBox="0 0 22 23" fill="none" xmlns="http://www.w3.org/2000/svg">
<path fill-rule="evenodd" clip-rule="evenodd" d="M4.86694 5.75709C4.86694 2.57754 7.44491 0 10.625 0C13.8051 0 16.3831 2.57754 16.3831 5.75709C16.3831 8.93665 13.8051 11.5142 10.625 11.5142C7.44491 11.5142 4.86694 8.93665 4.86694 5.75709ZM10.625 2.03192C8.56729 2.03192 6.89919 3.69973 6.89919 5.75709C6.89919 7.81445 8.56729 9.48227 10.625 9.48227C12.6827 9.48227 14.3508 7.81445 14.3508 5.75709C14.3508 3.69973 12.6827 2.03192 10.625 2.03192Z" fill="black"/>
<path fill-rule="evenodd" clip-rule="evenodd" d="M5.20565 15.578C3.52207 15.578 2.15726 16.9426 2.15726 18.6259V20.2355C2.15726 20.2601 2.17502 20.281 2.19922 20.2849C7.77947 21.1958 13.4705 21.1958 19.0508 20.2849C19.075 20.281 19.0927 20.2601 19.0927 20.2355V18.6259C19.0927 16.9426 17.7279 15.578 16.0444 15.578H15.5825C15.5468 15.578 15.5113 15.5837 15.4774 15.5947L14.3048 15.9776C11.9137 16.7582 9.33629 16.7582 6.94524 15.9776L5.7726 15.5947C5.73866 15.5837 5.70318 15.578 5.66747 15.578H5.20565ZM0.125 18.6259C0.125 15.8204 2.39968 13.5461 5.20565 13.5461H5.66747C5.91742 13.5461 6.16581 13.5856 6.40342 13.6632L7.57605 14.046C9.55721 14.6928 11.6928 14.6928 13.6739 14.046L14.8466 13.6632C15.0842 13.5856 15.3326 13.5461 15.5825 13.5461H16.0444C18.8503 13.5461 21.125 15.8204 21.125 18.6259V20.2355C21.125 21.2559 20.3854 22.1259 19.3782 22.2903C13.5811 23.2366 7.66888 23.2366 1.87176 22.2903C0.864584 22.1259 0.125 21.2559 0.125 20.2355V18.6259Z" fill="black"/>
</svg>
