<svg width="28" height="30" viewBox="0 0 28 30" fill="none" xmlns="http://www.w3.org/2000/svg">
<path fill-rule="evenodd" clip-rule="evenodd" d="M6.125 7.4375C6.125 3.32988 9.45488 0 13.5625 0C17.6701 0 21 3.32988 21 7.4375C21 11.5451 17.6701 14.875 13.5625 14.875C9.45488 14.875 6.125 11.5451 6.125 7.4375ZM13.5625 2.625C10.9046 2.625 8.75 4.77963 8.75 7.4375C8.75 10.0954 10.9046 12.25 13.5625 12.25C16.2204 12.25 18.375 10.0954 18.375 7.4375C18.375 4.77963 16.2204 2.625 13.5625 2.625Z" fill="#C4C4C4"/>
<path fill-rule="evenodd" clip-rule="evenodd" d="M6.5625 20.125C4.38788 20.125 2.625 21.8879 2.625 24.0625V26.142C2.625 26.1737 2.64795 26.2007 2.6792 26.2058C9.88702 27.3825 17.238 27.3825 24.4458 26.2058C24.4771 26.2007 24.5 26.1737 24.5 26.142V24.0625C24.5 21.8879 22.7371 20.125 20.5625 20.125H19.966C19.9199 20.125 19.874 20.1323 19.8302 20.1466L18.3155 20.6412C15.2271 21.6497 11.8979 21.6497 8.80947 20.6412L7.29482 20.1466C7.25098 20.1323 7.20514 20.125 7.15902 20.125H6.5625ZM0 24.0625C0 20.4381 2.93813 17.5 6.5625 17.5H7.15902C7.48188 17.5 7.80271 17.5511 8.10963 17.6513L9.62428 18.1459C12.1833 18.9814 14.9417 18.9814 17.5007 18.1459L19.0154 17.6513C19.3223 17.5511 19.6431 17.5 19.966 17.5H20.5625C24.1869 17.5 27.125 20.4381 27.125 24.0625V26.142C27.125 27.4602 26.1697 28.5841 24.8688 28.7965C17.3808 30.019 9.74417 30.019 2.25623 28.7965C0.955296 28.5841 0 27.4601 0 26.142V24.0625Z" fill="#C4C4C4"/>
</svg>
