<svg width="28" height="30" viewBox="0 0 28 30" fill="none" xmlns="http://www.w3.org/2000/svg">
<path fill-rule="evenodd" clip-rule="evenodd" d="M6.6875 7.4375C6.6875 3.32988 10.0174 0 14.125 0C18.2326 0 21.5625 3.32988 21.5625 7.4375C21.5625 11.5451 18.2326 14.875 14.125 14.875C10.0174 14.875 6.6875 11.5451 6.6875 7.4375Z" fill="white"/>
<path fill-rule="evenodd" clip-rule="evenodd" d="M0.5625 24.0625C0.5625 20.4381 3.50063 17.5 7.125 17.5H7.72152C8.04438 17.5 8.36521 17.5511 8.67213 17.6513L10.1868 18.1459C12.7458 18.9814 15.5042 18.9814 18.0632 18.1459L19.5779 17.6513C19.8848 17.5511 20.2056 17.5 20.5285 17.5H21.125C24.7494 17.5 27.6875 20.4381 27.6875 24.0625V26.142C27.6875 27.4602 26.7322 28.5841 25.4313 28.7965C17.9433 30.019 10.3067 30.019 2.81873 28.7965C1.5178 28.5841 0.5625 27.4601 0.5625 26.142V24.0625Z" fill="white"/>
</svg>
