<svg width="107" height="107" viewBox="0 0 107 107" fill="none" xmlns="http://www.w3.org/2000/svg">
<path fill-rule="evenodd" clip-rule="evenodd" d="M107 53.5C107 83.0472 83.0472 107 53.5 107C23.9528 107 0 83.0472 0 53.5C0 23.9528 23.9528 0 53.5 0C83.0472 0 107 23.9528 107 53.5ZM71.3333 53.5C71.3333 63.3491 63.3491 71.3333 53.5 71.3333C43.6509 71.3333 35.6667 63.3491 35.6667 53.5C35.6667 43.6509 43.6509 35.6667 53.5 35.6667C63.3491 35.6667 71.3333 43.6509 71.3333 53.5ZM53.7924 56.1311C55.084 56.1311 56.1311 55.084 56.1311 53.7924C56.1311 52.5007 55.084 51.4536 53.7924 51.4536C52.5007 51.4536 51.4536 52.5007 51.4536 53.7924C51.4536 55.084 52.5007 56.1311 53.7924 56.1311Z" fill="black"/>
</svg>
