<svg width="32" height="32" viewBox="0 0 32 32" fill="none" xmlns="http://www.w3.org/2000/svg">
<path d="M29.6628 6.83333H11.246L9.67242 4.0128C9.4958 3.6962 9.16166 3.5 8.79913 3.5H6.79913C6.24685 3.5 5.79913 3.94772 5.79913 4.5C5.79913 5.05228 6.24685 5.5 6.79913 5.5H8.21193L9.76486 8.28354L13.3463 16.2078L13.35 16.2159L13.6654 16.9139L10.0696 20.7494C9.81107 21.0252 9.73014 21.4232 9.86045 21.778C9.99076 22.1329 10.31 22.3839 10.6856 22.4269L13.9631 22.8014C18.0627 23.27 22.2023 23.27 26.3019 22.8014L29.5794 22.4269C30.1281 22.3642 30.5221 21.8685 30.4594 21.3198C30.3966 20.7711 29.901 20.3771 29.3523 20.4398L26.0748 20.8144C22.1261 21.2657 18.1389 21.2657 14.1902 20.8144L12.8895 20.6657L15.5287 17.8506C15.5542 17.8234 15.5779 17.7951 15.5998 17.7659L16.6036 17.8965C18.0101 18.0795 19.432 18.1154 20.846 18.0036C24.1439 17.7428 27.2005 16.1734 29.3344 13.6454L30.1052 12.7323C30.1311 12.7017 30.1551 12.6695 30.1771 12.6359L31.6136 10.4468C32.6318 8.8951 31.5187 6.83333 29.6628 6.83333Z" fill="white"/>
<path d="M12.7991 24.5C11.6946 24.5 10.7991 25.3954 10.7991 26.5C10.7991 27.6046 11.6946 28.5 12.7991 28.5C13.9037 28.5 14.7991 27.6046 14.7991 26.5C14.7991 25.3954 13.9037 24.5 12.7991 24.5Z" fill="white"/>
<path d="M25.4658 26.5C25.4658 25.3954 26.3612 24.5 27.4658 24.5C28.5704 24.5 29.4658 25.3954 29.4658 26.5C29.4658 27.6046 28.5704 28.5 27.4658 28.5C26.3612 28.5 25.4658 27.6046 25.4658 26.5Z" fill="white"/>
</svg>
