<svg width="33" height="34" viewBox="0 0 33 34" fill="none" xmlns="http://www.w3.org/2000/svg">
<mask id="path-1-inside-1_389_24" fill="white">
<path fill-rule="evenodd" clip-rule="evenodd" d="M8.39993 22.8342C12.0069 27.4937 12.8557 33.9995 12.8557 33.9995C12.8557 33.9995 13.7044 27.4937 17.3114 22.8342C20.9072 18.1891 25.5574 17.3883 25.5862 17.3834H25.5863C25.5863 17.3834 25.5863 17.3834 25.5863 17.3834C25.5863 17.3834 25.5863 17.3834 25.5863 17.3834H25.5862C25.5574 17.3785 20.9072 16.5777 17.3114 11.9326C13.7044 7.27303 12.8557 0.767235 12.8557 0.767235V0.767212C12.8557 0.767212 12.0069 7.30762 8.39993 11.992C5.42001 15.8619 1.71601 17.0776 0.518165 17.3834H0.125C0.125 17.3834 0.199475 17.396 0.336881 17.4275C0.199475 17.4591 0.125 17.4718 0.125 17.4718H0.520007C1.7198 17.7767 5.42153 18.9867 8.39993 22.8342Z"/>
</mask>
<path d="M12.8557 33.9995L10.8725 34.2583H14.8389L12.8557 33.9995ZM8.39993 22.8342L6.81842 24.0584H6.81842L8.39993 22.8342ZM17.3114 22.8342L18.8929 24.0584H18.8929L17.3114 22.8342ZM25.5862 17.3834V15.3834H25.4165L25.2493 15.412L25.5862 17.3834ZM25.5863 17.3834V19.3834L25.9441 15.4157L25.5863 17.3834ZM25.5863 17.3834L25.2575 15.4106V19.3562L25.5863 17.3834ZM25.5863 17.3834L25.9441 19.3511L25.5863 15.3834V17.3834ZM25.5862 17.3834L25.2493 19.3548L25.4165 19.3834H25.5862V17.3834ZM17.3114 11.9326L18.8929 10.7083L17.3114 11.9326ZM12.8557 0.767235H10.8557V0.897139L10.8725 1.02595L12.8557 0.767235ZM12.8557 0.767212H14.8557L10.8723 0.509841L12.8557 0.767212ZM8.39993 11.992L6.81528 10.7718L8.39993 11.992ZM0.518165 17.3834V19.3834H0.769385L1.0128 19.3212L0.518165 17.3834ZM0.125 17.3834V15.3834L-0.209311 19.3552L0.125 17.3834ZM0.336881 17.4275L0.78535 19.3765L0.783114 15.4779L0.336881 17.4275ZM0.125 17.4718L-0.21098 15.5002L0.125 19.4718V17.4718ZM0.520007 17.4718L1.0126 15.5334L0.770157 15.4718H0.520007V17.4718ZM12.8557 33.9995C14.8389 33.7408 14.8388 33.7404 14.8387 33.7399C14.8387 33.7397 14.8386 33.7392 14.8386 33.7388C14.8385 33.738 14.8384 33.7371 14.8382 33.7361C14.838 33.7341 14.8377 33.7318 14.8373 33.729C14.8365 33.7235 14.8356 33.7164 14.8344 33.7077C14.832 33.6904 14.8287 33.6669 14.8244 33.6374C14.8159 33.5786 14.8034 33.4959 14.7865 33.3915C14.7527 33.1828 14.7012 32.8866 14.6282 32.5197C14.4823 31.787 14.249 30.7653 13.896 29.5892C13.1978 27.2631 11.9956 24.2118 9.98144 21.6099L6.81842 24.0584C8.41127 26.1161 9.43698 28.6475 10.0649 30.7392C10.3749 31.772 10.5792 32.6679 10.7052 33.3007C10.7681 33.6165 10.8111 33.865 10.8378 34.0303C10.8512 34.1129 10.8604 34.1745 10.8661 34.2132C10.8689 34.2326 10.8708 34.2462 10.8718 34.2538C10.8724 34.2576 10.8727 34.2598 10.8728 34.2606C10.8728 34.261 10.8728 34.261 10.8728 34.2606C10.8727 34.2604 10.8727 34.2601 10.8727 34.2597C10.8726 34.2595 10.8726 34.2592 10.8726 34.2591C10.8725 34.2587 10.8725 34.2583 12.8557 33.9995ZM12.8557 33.9995C14.8389 34.2583 14.8388 34.2587 14.8387 34.2591C14.8387 34.2592 14.8387 34.2595 14.8387 34.2597C14.8386 34.2601 14.8386 34.2604 14.8385 34.2606C14.8385 34.261 14.8385 34.261 14.8385 34.2606C14.8386 34.2598 14.839 34.2576 14.8395 34.2538C14.8405 34.2462 14.8424 34.2326 14.8452 34.2132C14.8509 34.1745 14.8601 34.1129 14.8735 34.0303C14.9002 33.865 14.9433 33.6165 15.0061 33.3007C15.1321 32.6679 15.3364 31.772 15.6465 30.7392C16.2743 28.6475 17.3 26.1161 18.8929 24.0584L15.7299 21.6099C13.7157 24.2118 12.5136 27.2631 11.8153 29.5892C11.4623 30.7653 11.229 31.787 11.0831 32.5197C11.0101 32.8866 10.9586 33.1828 10.9248 33.3915C10.908 33.4959 10.8955 33.5786 10.8869 33.6374C10.8826 33.6669 10.8793 33.6904 10.8769 33.7077C10.8757 33.7164 10.8748 33.7235 10.874 33.729C10.8737 33.7318 10.8733 33.7341 10.8731 33.7361C10.873 33.7371 10.8728 33.738 10.8727 33.7388C10.8727 33.7392 10.8726 33.7397 10.8726 33.7399C10.8725 33.7404 10.8725 33.7408 12.8557 33.9995ZM18.8929 24.0584C22.0427 19.9896 26.1048 19.3238 25.923 19.3548L25.2493 15.412C25.01 15.4529 19.7718 16.3885 15.7299 21.6099L18.8929 24.0584ZM25.5863 15.3834H25.5862V19.3834H25.5863V15.3834ZM25.2575 19.3562C25.253 19.3554 25.2484 19.3547 25.2436 19.3538C25.2412 19.3534 25.2388 19.353 25.2362 19.3525C25.235 19.3523 25.2337 19.3521 25.2324 19.3518C25.2318 19.3517 25.2312 19.3516 25.2305 19.3515C25.2302 19.3514 25.2299 19.3514 25.2295 19.3513C25.2294 19.3513 25.2292 19.3513 25.229 19.3512C25.229 19.3512 25.2289 19.3512 25.2288 19.3512C25.2288 19.3512 25.2287 19.3512 25.2287 19.3512C25.2286 19.3512 25.2286 19.3511 25.2286 19.3511C25.2286 19.3511 25.2285 19.3511 25.5863 17.3834C25.9441 15.4157 25.9441 15.4157 25.944 15.4156C25.944 15.4156 25.944 15.4156 25.944 15.4156C25.9439 15.4156 25.9439 15.4156 25.9438 15.4156C25.9438 15.4156 25.9437 15.4156 25.9436 15.4156C25.9434 15.4155 25.9433 15.4155 25.9431 15.4155C25.9428 15.4154 25.9425 15.4154 25.9421 15.4153C25.9415 15.4152 25.9408 15.4151 25.9402 15.415C25.9389 15.4147 25.9376 15.4145 25.9364 15.4143C25.9339 15.4138 25.9314 15.4134 25.929 15.413C25.9242 15.4121 25.9195 15.4113 25.915 15.4106L25.2575 19.3562ZM25.915 19.3562C25.9195 19.3554 25.9242 19.3546 25.929 19.3538C25.9314 19.3534 25.9339 19.3529 25.9364 19.3525C25.9376 19.3523 25.9389 19.352 25.9402 19.3518C25.9408 19.3517 25.9415 19.3516 25.9421 19.3515C25.9425 19.3514 25.9428 19.3514 25.9431 19.3513C25.9433 19.3513 25.9434 19.3512 25.9436 19.3512C25.9437 19.3512 25.9438 19.3512 25.9438 19.3512C25.9439 19.3512 25.9439 19.3511 25.944 19.3511C25.944 19.3511 25.944 19.3511 25.944 19.3511C25.9441 19.3511 25.9441 19.3511 25.5863 17.3834C25.2285 15.4156 25.2286 15.4156 25.2286 15.4156C25.2286 15.4156 25.2286 15.4156 25.2287 15.4156C25.2287 15.4156 25.2288 15.4156 25.2288 15.4156C25.2289 15.4156 25.229 15.4156 25.229 15.4155C25.2292 15.4155 25.2294 15.4155 25.2295 15.4155C25.2299 15.4154 25.2302 15.4153 25.2305 15.4153C25.2312 15.4152 25.2318 15.415 25.2324 15.4149C25.2337 15.4147 25.235 15.4145 25.2362 15.4142C25.2388 15.4138 25.2412 15.4134 25.2436 15.413C25.2484 15.4121 25.253 15.4113 25.2575 15.4106L25.915 19.3562ZM25.5863 15.3834H25.5862V19.3834H25.5863V15.3834ZM15.7299 13.1569C19.7718 18.3782 25.01 19.3139 25.2493 19.3548L25.923 15.4119C26.1048 15.443 22.0427 14.7772 18.8929 10.7083L15.7299 13.1569ZM12.8557 0.767235C10.8725 1.02595 10.8725 1.02642 10.8726 1.02691C10.8726 1.0271 10.8727 1.02762 10.8727 1.02801C10.8728 1.0288 10.873 1.02968 10.8731 1.03067C10.8733 1.03264 10.8737 1.03501 10.874 1.03777C10.8748 1.0433 10.8757 1.05041 10.8769 1.05907C10.8793 1.07638 10.8826 1.09989 10.8869 1.12933C10.8955 1.18821 10.908 1.27088 10.9248 1.37529C10.9586 1.58401 11.0101 1.88015 11.0831 2.2471C11.229 2.97975 11.4623 4.00151 11.8153 5.17758C12.5136 7.50363 13.7157 10.5549 15.7299 13.1569L18.8929 10.7083C17.3 8.65068 16.2743 6.11932 15.6465 4.02758C15.3364 2.99475 15.1321 2.09884 15.0061 1.46605C14.9433 1.15027 14.9002 0.901745 14.8735 0.736474C14.8601 0.653887 14.8509 0.592239 14.8452 0.553541C14.8424 0.534196 14.8405 0.520602 14.8395 0.513011C14.839 0.509216 14.8386 0.506922 14.8385 0.506163C14.8385 0.505783 14.8385 0.505787 14.8385 0.506178C14.8386 0.506374 14.8386 0.506666 14.8387 0.507056C14.8387 0.507251 14.8387 0.507617 14.8387 0.507714C14.8388 0.508104 14.8389 0.508519 12.8557 0.767235ZM10.8557 0.767212V0.767235H14.8557V0.767212H10.8557ZM9.98457 13.2122C11.9976 10.5979 13.199 7.53225 13.8968 5.19517C14.2496 4.01351 14.4828 2.98693 14.6286 2.25088C14.7016 1.88224 14.753 1.58476 14.7867 1.37515C14.8036 1.2703 14.8161 1.1873 14.8246 1.12821C14.8289 1.09866 14.8322 1.07508 14.8346 1.05773C14.8358 1.04905 14.8367 1.04193 14.8375 1.03639C14.8378 1.03363 14.8382 1.03126 14.8384 1.02929C14.8385 1.0283 14.8387 1.02742 14.8388 1.02663C14.8388 1.02624 14.8389 1.02573 14.8389 1.02553C14.839 1.02504 14.839 1.02458 12.8557 0.767212C10.8723 0.509841 10.8723 0.509429 10.8724 0.509042C10.8724 0.508946 10.8725 0.508582 10.8725 0.508389C10.8725 0.508003 10.8726 0.507715 10.8726 0.507525C10.8726 0.507144 10.8726 0.507152 10.8726 0.507546C10.8725 0.508334 10.8722 0.510665 10.8716 0.514505C10.8706 0.522187 10.8687 0.535905 10.8659 0.555404C10.8602 0.594412 10.8509 0.656495 10.8376 0.739634C10.8108 0.906005 10.7677 1.1561 10.7048 1.47381C10.5787 2.11047 10.3743 3.01176 10.064 4.05075C9.43574 6.15495 8.4093 8.70164 6.81528 10.7718L9.98457 13.2122ZM1.0128 19.3212C2.45304 18.9536 6.63194 17.5661 9.98457 13.2122L6.81528 10.7718C4.20807 14.1577 0.978977 15.2016 0.0235306 15.4455L1.0128 19.3212ZM0.125 19.3834H0.518165V15.3834H0.125V19.3834ZM0.783114 15.4779C0.694563 15.4576 0.622327 15.4425 0.567905 15.4317C0.540688 15.4263 0.517908 15.422 0.499752 15.4187C0.490674 15.417 0.482749 15.4156 0.476002 15.4144C0.472628 15.4138 0.469549 15.4133 0.466766 15.4128C0.465375 15.4125 0.464057 15.4123 0.462815 15.4121C0.462194 15.412 0.461591 15.4119 0.461007 15.4118C0.460715 15.4118 0.460428 15.4117 0.460145 15.4117C0.460004 15.4116 0.459864 15.4116 0.459725 15.4116C0.459655 15.4116 0.459552 15.4116 0.459517 15.4115C0.459414 15.4115 0.459311 15.4115 0.125 17.3834C-0.209311 19.3552 -0.209413 19.3552 -0.209515 19.3552C-0.209549 19.3552 -0.209651 19.3552 -0.209718 19.3552C-0.209852 19.3551 -0.209986 19.3551 -0.210118 19.3551C-0.210382 19.3551 -0.210642 19.355 -0.210898 19.355C-0.211409 19.3549 -0.211903 19.3548 -0.212379 19.3547C-0.213331 19.3545 -0.214214 19.3544 -0.215026 19.3543C-0.216651 19.354 -0.217996 19.3537 -0.219065 19.3536C-0.221203 19.3532 -0.222235 19.353 -0.222185 19.353C-0.222083 19.353 -0.217656 19.3538 -0.209078 19.3555C-0.191911 19.3589 -0.158206 19.3659 -0.109351 19.377L0.783114 15.4779ZM0.125 17.4718C0.46098 19.4433 0.461083 19.4433 0.461187 19.4433C0.461222 19.4433 0.461326 19.4433 0.461396 19.4433C0.461535 19.4432 0.461676 19.4432 0.461818 19.4432C0.462102 19.4431 0.462391 19.4431 0.462684 19.443C0.463271 19.4429 0.463877 19.4428 0.464501 19.4427C0.465749 19.4425 0.467072 19.4423 0.468469 19.442C0.471263 19.4416 0.474354 19.441 0.47774 19.4404C0.48451 19.4392 0.492458 19.4378 0.50156 19.4361C0.519762 19.4327 0.542589 19.4284 0.569853 19.423C0.62437 19.4121 0.696702 19.3969 0.78535 19.3765L-0.111588 15.4784C-0.160345 15.4896 -0.193954 15.4965 -0.211026 15.4999C-0.219557 15.5016 -0.223937 15.5024 -0.223992 15.5025C-0.22402 15.5025 -0.222964 15.5023 -0.220803 15.5019C-0.219722 15.5017 -0.218365 15.5015 -0.216729 15.5012C-0.215911 15.501 -0.215023 15.5009 -0.214065 15.5007C-0.213586 15.5006 -0.21309 15.5005 -0.212575 15.5005C-0.212318 15.5004 -0.212057 15.5004 -0.211791 15.5003C-0.211658 15.5003 -0.211524 15.5003 -0.211389 15.5003C-0.211321 15.5002 -0.211219 15.5002 -0.211185 15.5002C-0.211083 15.5002 -0.21098 15.5002 0.125 17.4718ZM0.520007 15.4718H0.125V19.4718H0.520007V15.4718ZM9.98144 21.6099C6.62936 17.2797 2.45289 15.8994 1.0126 15.5334L0.0274117 19.4101C0.986713 19.6539 4.21371 20.6937 6.81842 24.0584L9.98144 21.6099Z" fill="#C4C4C4" mask="url(#path-1-inside-1_389_24)"/>
<mask id="path-3-inside-2_389_24" fill="white">
<path fill-rule="evenodd" clip-rule="evenodd" d="M26.5998 8.84612C27.9204 10.552 28.2311 12.9339 28.2311 12.9339C28.2311 12.9339 28.5418 10.552 29.8624 8.84612C31.179 7.14527 32.8818 6.85227 32.8919 6.85055H32.8919C32.8919 6.85055 32.8919 6.85055 32.8919 6.85054C32.8919 6.85054 32.8919 6.85054 32.8919 6.85054H32.8919C32.8818 6.84882 31.179 6.55582 29.8624 4.85496C28.5418 3.14906 28.2311 0.767235 28.2311 0.767235V0.767212C28.2311 0.767212 27.9204 3.16171 26.5998 4.87668C25.5088 6.29357 24.1527 6.73863 23.7142 6.85054H23.5703C23.5703 6.85054 23.5976 6.85516 23.6478 6.86667C23.5976 6.87824 23.5703 6.88288 23.5703 6.88288H23.7149C24.1541 6.99448 25.5094 7.43746 26.5998 8.84612Z"/>
</mask>
<path d="M28.2311 12.9339L27.505 13.0286H28.9572L28.2311 12.9339ZM26.5998 8.84612L26.0208 9.29434L26.5998 8.84612ZM29.8624 8.84612L30.4414 9.29434L29.8624 8.84612ZM32.8919 6.85055V6.11833H32.8298L32.7686 6.12878L32.8919 6.85055ZM32.8919 6.85055V7.58276L33.0123 6.12829L32.8919 6.85055ZM32.8919 6.85054L32.7646 6.12947V7.57162L32.8919 6.85054ZM32.8919 6.85054L32.9325 7.58163L32.8919 6.11832V6.85054ZM32.8919 6.85054L32.7686 7.57231L32.8298 7.58276H32.8919V6.85054ZM29.8624 4.85496L30.4414 4.40675L29.8624 4.85496ZM28.2311 0.767235H27.4989V0.814794L27.505 0.861954L28.2311 0.767235ZM28.2311 0.767212H28.9633L27.505 0.672986L28.2311 0.767212ZM26.5998 4.87668L26.0197 4.42996L26.5998 4.87668ZM23.7142 6.85054V7.58276H23.8062L23.8953 7.56001L23.7142 6.85054ZM23.5703 6.85054V6.11832L23.4479 7.57245L23.5703 6.85054ZM23.6478 6.86667L23.812 7.58024L23.8112 6.15291L23.6478 6.86667ZM23.5703 6.88288L23.4473 6.16107L23.5703 7.6151V6.88288ZM23.7149 6.88288L23.8952 6.17322L23.8064 6.15067H23.7149V6.88288ZM28.2311 12.9339C28.9572 12.8391 28.9572 12.839 28.9571 12.8388C28.9571 12.8387 28.9571 12.8385 28.9571 12.8384C28.957 12.8381 28.957 12.8378 28.9569 12.8374C28.9569 12.8367 28.9567 12.8358 28.9566 12.8348C28.9563 12.8328 28.956 12.8302 28.9555 12.827C28.9547 12.8207 28.9535 12.8121 28.9519 12.8013C28.9488 12.7797 28.9442 12.7495 28.938 12.7112C28.9256 12.6348 28.9068 12.5264 28.88 12.3921C28.8266 12.1238 28.7412 11.7498 28.612 11.3192C28.3564 10.4676 27.9162 9.35049 27.1788 8.39791L26.0208 9.29434C26.604 10.0477 26.9795 10.9744 27.2094 11.7402C27.3229 12.1183 27.3977 12.4463 27.4438 12.678C27.4668 12.7936 27.4826 12.8846 27.4924 12.9451C27.4973 12.9754 27.5006 12.9979 27.5027 13.0121C27.5037 13.0192 27.5044 13.0241 27.5048 13.0269C27.505 13.0283 27.5051 13.0292 27.5052 13.0294C27.5052 13.0296 27.5052 13.0296 27.5052 13.0294C27.5051 13.0294 27.5051 13.0292 27.5051 13.0291C27.5051 13.029 27.5051 13.0289 27.5051 13.0289C27.5051 13.0287 27.505 13.0286 28.2311 12.9339ZM28.2311 12.9339C28.9572 13.0286 28.9572 13.0287 28.9571 13.0289C28.9571 13.0289 28.9571 13.029 28.9571 13.0291C28.9571 13.0292 28.9571 13.0294 28.9571 13.0294C28.957 13.0296 28.957 13.0296 28.9571 13.0294C28.9571 13.0292 28.9572 13.0283 28.9574 13.0269C28.9578 13.0241 28.9585 13.0192 28.9595 13.0121C28.9616 12.9979 28.965 12.9754 28.9699 12.9451C28.9796 12.8846 28.9954 12.7936 29.0184 12.678C29.0645 12.4463 29.1393 12.1183 29.2528 11.7402C29.4827 10.9744 29.8582 10.0477 30.4414 9.29434L29.2834 8.39791C28.546 9.35049 28.1059 10.4676 27.8502 11.3192C27.721 11.7498 27.6356 12.1238 27.5822 12.3921C27.5554 12.5264 27.5366 12.6348 27.5242 12.7112C27.518 12.7495 27.5135 12.7797 27.5103 12.8013C27.5088 12.8121 27.5076 12.8207 27.5067 12.827C27.5062 12.8302 27.5059 12.8328 27.5056 12.8348C27.5055 12.8358 27.5054 12.8367 27.5053 12.8374C27.5052 12.8378 27.5052 12.8381 27.5051 12.8384C27.5051 12.8385 27.5051 12.8387 27.5051 12.8388C27.5051 12.839 27.505 12.8391 28.2311 12.9339ZM30.4414 9.29434C31.5947 7.80448 33.0821 7.56087 33.0151 7.57231L32.7686 6.12878C32.6815 6.14366 30.7634 6.48605 29.2834 8.39791L30.4414 9.29434ZM32.8919 6.11833H32.8919V7.58276H32.8919V6.11833ZM32.7646 7.57162C32.7659 7.57183 32.767 7.57204 32.7682 7.57224C32.7688 7.57233 32.7693 7.57243 32.7699 7.57252C32.7702 7.57257 32.7704 7.57262 32.7707 7.57266C32.7709 7.57269 32.771 7.57271 32.7711 7.57273C32.7712 7.57274 32.7713 7.57276 32.7713 7.57277C32.7714 7.57277 32.7714 7.57278 32.7714 7.57278C32.7714 7.57279 32.7715 7.57279 32.7715 7.57279C32.7715 7.57279 32.7715 7.5728 32.7715 7.5728C32.7715 7.5728 32.7715 7.5728 32.7715 7.5728C32.7715 7.5728 32.7715 7.5728 32.8919 6.85055C33.0123 6.12829 33.0123 6.12829 33.0123 6.1283C33.0123 6.1283 33.0123 6.1283 33.0123 6.1283C33.0123 6.1283 33.0123 6.1283 33.0123 6.1283C33.0124 6.12831 33.0124 6.12831 33.0124 6.12831C33.0124 6.12832 33.0125 6.12832 33.0125 6.12833C33.0126 6.12834 33.0126 6.12835 33.0127 6.12836C33.0128 6.12839 33.013 6.12841 33.0131 6.12843C33.0134 6.12848 33.0137 6.12852 33.0139 6.12857C33.0145 6.12866 33.0151 6.12876 33.0156 6.12886C33.0168 6.12905 33.0179 6.12926 33.0191 6.12947L32.7646 7.57162ZM33.0191 7.57162C33.0042 7.57425 32.9895 7.57637 32.975 7.57802C32.9678 7.57885 32.9607 7.57956 32.9536 7.58016C32.95 7.58046 32.9465 7.58073 32.943 7.58097C32.9412 7.5811 32.9395 7.58121 32.9377 7.58132C32.9369 7.58138 32.936 7.58143 32.9351 7.58148C32.9347 7.58151 32.9343 7.58153 32.9338 7.58156C32.9336 7.58157 32.9334 7.58158 32.9332 7.58159C32.9331 7.5816 32.933 7.5816 32.9329 7.58161C32.9328 7.58161 32.9327 7.58162 32.9327 7.58162C32.9326 7.58162 32.9325 7.58163 32.8919 6.85054C32.8513 6.11945 32.8512 6.11946 32.8511 6.11946C32.8511 6.11946 32.851 6.11947 32.851 6.11947C32.8509 6.11948 32.8508 6.11948 32.8506 6.11949C32.8504 6.1195 32.8502 6.11951 32.85 6.11952C32.8496 6.11955 32.8491 6.11958 32.8487 6.1196C32.8478 6.11965 32.8469 6.11971 32.8461 6.11976C32.8443 6.11987 32.8426 6.11999 32.8408 6.12011C32.8373 6.12035 32.8338 6.12063 32.8303 6.12092C32.8232 6.12152 32.816 6.12223 32.8088 6.12306C32.7943 6.12471 32.7796 6.12683 32.7646 6.12947L33.0191 7.57162ZM32.8919 6.11832H32.8919V7.58276H32.8919V6.11832ZM29.2834 5.30318C30.7634 7.21503 32.6815 7.55742 32.7686 7.57231L33.0151 6.12878C33.0821 6.14022 31.5947 5.89661 30.4414 4.40675L29.2834 5.30318ZM28.2311 0.767235C27.505 0.861954 27.5051 0.862124 27.5051 0.862303C27.5051 0.862375 27.5051 0.862563 27.5051 0.862707C27.5052 0.862995 27.5052 0.863319 27.5053 0.86368C27.5054 0.864402 27.5055 0.86527 27.5056 0.866282C27.5059 0.868307 27.5062 0.870909 27.5067 0.874078C27.5076 0.880417 27.5088 0.889022 27.5103 0.899802C27.5135 0.921357 27.518 0.951625 27.5242 0.989849C27.5366 1.06626 27.5554 1.17468 27.5822 1.30902C27.6356 1.57726 27.721 1.95133 27.8502 2.3819C28.1059 3.23349 28.546 4.3506 29.2834 5.30318L30.4414 4.40675C29.8582 3.65343 29.4827 2.72668 29.2528 1.96087C29.1393 1.58275 29.0645 1.25475 29.0184 1.02308C28.9954 0.907468 28.9796 0.81648 28.9699 0.755973C28.965 0.725737 28.9616 0.703168 28.9595 0.689C28.9585 0.681918 28.9578 0.676941 28.9574 0.674162C28.9572 0.672772 28.9571 0.671933 28.9571 0.671654C28.957 0.671515 28.957 0.671517 28.9571 0.67166C28.9571 0.671732 28.9571 0.671839 28.9571 0.671982C28.9571 0.672053 28.9571 0.672187 28.9571 0.672222C28.9572 0.672365 28.9572 0.672517 28.2311 0.767235ZM27.4989 0.767212V0.767235H28.9633V0.767212H27.4989ZM27.18 5.32341C27.917 4.36632 28.3568 3.24395 28.6123 2.38832C28.7415 1.95571 28.8268 1.57987 28.8802 1.31039C28.9069 1.17543 28.9257 1.06652 28.9381 0.989785C28.9443 0.951398 28.9488 0.921009 28.952 0.899377C28.9535 0.888559 28.9547 0.879926 28.9556 0.873573C28.956 0.870396 28.9564 0.867788 28.9567 0.865762C28.9568 0.864749 28.9569 0.863881 28.957 0.86316C28.9571 0.862799 28.9571 0.862475 28.9571 0.862188C28.9572 0.862044 28.9572 0.861857 28.9572 0.861785C28.9572 0.861607 28.9572 0.861437 28.2311 0.767212C27.505 0.672986 27.505 0.672835 27.505 0.672694C27.505 0.672658 27.505 0.672525 27.5051 0.672455C27.5051 0.672313 27.5051 0.672208 27.5051 0.672138C27.5051 0.671999 27.5051 0.672002 27.5051 0.672146C27.5051 0.672435 27.5049 0.673288 27.5047 0.674694C27.5044 0.677506 27.5037 0.682528 27.5026 0.689667C27.5006 0.703948 27.4972 0.726677 27.4923 0.757115C27.4825 0.818025 27.4667 0.909585 27.4437 1.0259C27.3975 1.25899 27.3226 1.58896 27.2091 1.96934C26.9791 2.73971 26.6033 3.67207 26.0197 4.42996L27.18 5.32341ZM23.8953 7.56001C24.4225 7.42545 25.9525 6.91751 27.18 5.32341L26.0197 4.42996C25.0651 5.66963 23.8828 6.05181 23.5331 6.14107L23.8953 7.56001ZM23.5703 7.58276H23.7142V6.11832H23.5703V7.58276ZM23.8112 6.15291C23.7788 6.14549 23.7524 6.13997 23.7325 6.13602C23.7225 6.13405 23.7142 6.13247 23.7075 6.13126C23.7042 6.13065 23.7013 6.13013 23.6989 6.12969C23.6976 6.12947 23.6965 6.12928 23.6955 6.1291C23.695 6.12901 23.6945 6.12893 23.694 6.12885C23.6938 6.12881 23.6936 6.12877 23.6934 6.12874C23.6933 6.12872 23.6932 6.1287 23.6931 6.12868C23.693 6.12868 23.6929 6.12867 23.6929 6.12866C23.6929 6.12865 23.6928 6.12865 23.6928 6.12865C23.6928 6.12864 23.6927 6.12863 23.5703 6.85054C23.4479 7.57245 23.4478 7.57244 23.4478 7.57244C23.4478 7.57243 23.4478 7.57243 23.4477 7.57242C23.4477 7.57241 23.4476 7.57241 23.4476 7.5724C23.4475 7.57238 23.4474 7.57237 23.4473 7.57235C23.4471 7.57232 23.4469 7.57229 23.4468 7.57226C23.4464 7.5722 23.4461 7.57214 23.4458 7.57209C23.4452 7.57199 23.4447 7.5719 23.4443 7.57183C23.4435 7.57169 23.4432 7.57163 23.4432 7.57163C23.4432 7.57164 23.4448 7.57193 23.448 7.57256C23.4543 7.5738 23.4666 7.57634 23.4845 7.58043L23.8112 6.15291ZM23.5703 6.88288C23.6933 7.60469 23.6934 7.60469 23.6934 7.60468C23.6934 7.60468 23.6935 7.60467 23.6935 7.60467C23.6935 7.60466 23.6936 7.60465 23.6936 7.60464C23.6937 7.60462 23.6938 7.6046 23.6939 7.60459C23.6942 7.60455 23.6944 7.60451 23.6946 7.60447C23.6951 7.60439 23.6956 7.60431 23.6961 7.60422C23.6971 7.60404 23.6982 7.60384 23.6995 7.60362C23.7019 7.60318 23.7048 7.60266 23.7082 7.60205C23.7148 7.60082 23.7232 7.59923 23.7332 7.59724C23.7531 7.59327 23.7796 7.58771 23.812 7.58024L23.4837 6.1531C23.4658 6.1572 23.4535 6.15974 23.4473 6.16099C23.4442 6.16161 23.4426 6.1619 23.4425 6.16191C23.4425 6.16191 23.4429 6.16184 23.4437 6.1617C23.4441 6.16163 23.4446 6.16154 23.4452 6.16144C23.4455 6.16138 23.4458 6.16133 23.4462 6.16127C23.4463 6.16124 23.4465 6.16121 23.4467 6.16117C23.4468 6.16116 23.4469 6.16114 23.447 6.16112C23.4471 6.16112 23.4471 6.16111 23.4472 6.1611C23.4472 6.16109 23.4472 6.16109 23.4472 6.16109C23.4473 6.16108 23.4473 6.16107 23.5703 6.88288ZM23.7149 6.15067H23.5703V7.6151H23.7149V6.15067ZM27.1788 8.39791C25.9516 6.8125 24.4224 6.30719 23.8952 6.17322L23.5345 7.59255C23.8857 7.68177 25.0672 8.06241 26.0208 9.29434L27.1788 8.39791Z" fill="#C4C4C4" mask="url(#path-3-inside-2_389_24)"/>
</svg>
