<svg width="33" height="34" viewBox="0 0 33 34" fill="none" xmlns="http://www.w3.org/2000/svg">
<mask id="path-1-inside-1_64_270" fill="white">
<path fill-rule="evenodd" clip-rule="evenodd" d="M8.27493 22.067C11.8819 26.7265 12.7307 33.2323 12.7307 33.2323C12.7307 33.2323 13.5794 26.7265 17.1864 22.067C20.7822 17.4218 25.4324 16.6211 25.4612 16.6162H25.4613C25.4613 16.6162 25.4613 16.6162 25.4613 16.6162C25.4613 16.6162 25.4613 16.6162 25.4613 16.6162H25.4612C25.4324 16.6112 20.7822 15.8105 17.1864 11.1654C13.5794 6.50582 12.7307 2.34276e-05 12.7307 2.34276e-05V0C12.7307 0 11.8819 6.5404 8.27493 11.2247C5.29501 15.0947 1.59101 16.3104 0.393165 16.6162H0C0 16.6162 0.0744755 16.6288 0.211881 16.6602C0.0744755 16.6919 0 16.7045 0 16.7045H0.395007C1.5948 17.0094 5.29653 18.2195 8.27493 22.067Z"/>
</mask>
<path fill-rule="evenodd" clip-rule="evenodd" d="M8.27493 22.067C11.8819 26.7265 12.7307 33.2323 12.7307 33.2323C12.7307 33.2323 13.5794 26.7265 17.1864 22.067C20.7822 17.4218 25.4324 16.6211 25.4612 16.6162H25.4613C25.4613 16.6162 25.4613 16.6162 25.4613 16.6162C25.4613 16.6162 25.4613 16.6162 25.4613 16.6162H25.4612C25.4324 16.6112 20.7822 15.8105 17.1864 11.1654C13.5794 6.50582 12.7307 2.34276e-05 12.7307 2.34276e-05V0C12.7307 0 11.8819 6.5404 8.27493 11.2247C5.29501 15.0947 1.59101 16.3104 0.393165 16.6162H0C0 16.6162 0.0744755 16.6288 0.211881 16.6602C0.0744755 16.6919 0 16.7045 0 16.7045H0.395007C1.5948 17.0094 5.29653 18.2195 8.27493 22.067Z" fill="white"/>
<path d="M12.7307 33.2323L10.7475 33.491H14.7139L12.7307 33.2323ZM8.27493 22.067L6.69342 23.2912H6.69342L8.27493 22.067ZM17.1864 22.067L18.7679 23.2912H18.7679L17.1864 22.067ZM25.4612 16.6162V14.6162H25.2915L25.1243 14.6448L25.4612 16.6162ZM25.4613 16.6162V18.6162L25.8191 14.6484L25.4613 16.6162ZM25.4613 16.6162L25.1325 14.6434V18.589L25.4613 16.6162ZM25.4613 16.6162L25.8191 18.5839L25.4613 14.6162V16.6162ZM25.4612 16.6162L25.1243 18.5876L25.2915 18.6162H25.4612V16.6162ZM17.1864 11.1654L18.7679 9.94112V9.94111L17.1864 11.1654ZM12.7307 2.34276e-05H10.7307V0.129927L10.7475 0.25874L12.7307 2.34276e-05ZM12.7307 0H14.7307L10.7473 -0.25737L12.7307 0ZM8.27493 11.2247L6.69028 10.0045L8.27493 11.2247ZM0.393165 16.6162V18.6162H0.644385L0.8878 18.554L0.393165 16.6162ZM0 16.6162V14.6162L-0.334311 18.588L0 16.6162ZM0.211881 16.6602L0.66035 18.6093L0.658114 14.7107L0.211881 16.6602ZM0 16.7045L-0.33598 14.733L0 18.7045V16.7045ZM0.395007 16.7045L0.887602 14.7662L0.645157 14.7045H0.395007V16.7045ZM12.7307 33.2323C14.7139 32.9736 14.7138 32.9731 14.7137 32.9727C14.7137 32.9725 14.7136 32.9719 14.7136 32.9715C14.7135 32.9708 14.7134 32.9699 14.7132 32.9689C14.713 32.9669 14.7127 32.9646 14.7123 32.9618C14.7115 32.9563 14.7106 32.9491 14.7094 32.9405C14.707 32.9232 14.7037 32.8997 14.6994 32.8702C14.6909 32.8113 14.6784 32.7287 14.6615 32.6243C14.6277 32.4156 14.5762 32.1194 14.5032 31.7525C14.3573 31.0198 14.124 29.998 13.771 28.822C13.0728 26.4959 11.8706 23.4446 9.85644 20.8427L6.69342 23.2912C8.28627 25.3489 9.31198 27.8802 9.93987 29.972C10.2499 31.0048 10.4542 31.9007 10.5802 32.5335C10.6431 32.8493 10.6861 33.0978 10.7128 33.2631C10.7262 33.3457 10.7354 33.4073 10.7411 33.446C10.7439 33.4654 10.7458 33.479 10.7468 33.4865C10.7474 33.4903 10.7477 33.4926 10.7478 33.4934C10.7478 33.4938 10.7478 33.4938 10.7478 33.4934C10.7477 33.4932 10.7477 33.4929 10.7477 33.4925C10.7476 33.4923 10.7476 33.4919 10.7476 33.4918C10.7475 33.4915 10.7475 33.491 12.7307 33.2323ZM12.7307 33.2323C14.7139 33.491 14.7138 33.4915 14.7137 33.4918C14.7137 33.4919 14.7137 33.4923 14.7137 33.4925C14.7136 33.4929 14.7136 33.4932 14.7135 33.4934C14.7135 33.4938 14.7135 33.4938 14.7135 33.4934C14.7136 33.4926 14.714 33.4903 14.7145 33.4865C14.7155 33.479 14.7174 33.4654 14.7202 33.446C14.7259 33.4073 14.7351 33.3457 14.7485 33.2631C14.7752 33.0978 14.8183 32.8493 14.8811 32.5335C15.0071 31.9007 15.2114 31.0048 15.5215 29.972C16.1493 27.8802 17.175 25.3489 18.7679 23.2912L15.6049 20.8427C13.5907 23.4446 12.3886 26.4959 11.6903 28.822C11.3373 29.998 11.104 31.0198 10.9581 31.7525C10.8851 32.1194 10.8336 32.4156 10.7998 32.6243C10.783 32.7287 10.7705 32.8113 10.7619 32.8702C10.7576 32.8997 10.7543 32.9232 10.7519 32.9405C10.7507 32.9491 10.7498 32.9563 10.749 32.9618C10.7487 32.9646 10.7483 32.9669 10.7481 32.9689C10.748 32.9699 10.7478 32.9708 10.7477 32.9715C10.7477 32.9719 10.7476 32.9725 10.7476 32.9727C10.7475 32.9731 10.7475 32.9736 12.7307 33.2323ZM18.7679 23.2912C21.9177 19.2224 25.9798 18.5566 25.798 18.5876L25.1243 14.6448C24.885 14.6856 19.6468 15.6213 15.6049 20.8427L18.7679 23.2912ZM25.4613 14.6162H25.4612V18.6162H25.4613V14.6162ZM25.1325 18.589C25.128 18.5882 25.1234 18.5874 25.1186 18.5866C25.1162 18.5862 25.1138 18.5858 25.1112 18.5853C25.11 18.5851 25.1087 18.5849 25.1074 18.5846C25.1068 18.5845 25.1062 18.5844 25.1055 18.5843C25.1052 18.5842 25.1049 18.5842 25.1045 18.5841C25.1044 18.5841 25.1042 18.584 25.104 18.584C25.104 18.584 25.1039 18.584 25.1038 18.584C25.1038 18.584 25.1037 18.584 25.1037 18.5839C25.1036 18.5839 25.1036 18.5839 25.1036 18.5839C25.1036 18.5839 25.1035 18.5839 25.4613 16.6162C25.8191 14.6484 25.8191 14.6484 25.819 14.6484C25.819 14.6484 25.819 14.6484 25.819 14.6484C25.8189 14.6484 25.8189 14.6484 25.8188 14.6484C25.8188 14.6484 25.8187 14.6484 25.8186 14.6484C25.8184 14.6483 25.8183 14.6483 25.8181 14.6483C25.8178 14.6482 25.8175 14.6481 25.8171 14.6481C25.8165 14.648 25.8158 14.6479 25.8152 14.6477C25.8139 14.6475 25.8126 14.6473 25.8114 14.6471C25.8089 14.6466 25.8064 14.6462 25.804 14.6458C25.7992 14.6449 25.7945 14.6441 25.79 14.6434L25.1325 18.589ZM25.79 18.589C25.7945 18.5882 25.7992 18.5874 25.804 18.5866C25.8064 18.5862 25.8089 18.5857 25.8114 18.5853C25.8126 18.5851 25.8139 18.5848 25.8152 18.5846C25.8158 18.5845 25.8165 18.5844 25.8171 18.5843C25.8175 18.5842 25.8178 18.5841 25.8181 18.5841C25.8183 18.584 25.8184 18.584 25.8186 18.584C25.8187 18.584 25.8188 18.584 25.8188 18.5839C25.8189 18.5839 25.8189 18.5839 25.819 18.5839C25.819 18.5839 25.819 18.5839 25.819 18.5839C25.8191 18.5839 25.8191 18.5839 25.4613 16.6162C25.1035 14.6484 25.1036 14.6484 25.1036 14.6484C25.1036 14.6484 25.1036 14.6484 25.1037 14.6484C25.1037 14.6484 25.1038 14.6484 25.1038 14.6484C25.1039 14.6484 25.104 14.6483 25.104 14.6483C25.1042 14.6483 25.1044 14.6483 25.1045 14.6482C25.1049 14.6482 25.1052 14.6481 25.1055 14.6481C25.1062 14.648 25.1068 14.6478 25.1074 14.6477C25.1087 14.6475 25.11 14.6473 25.1112 14.647C25.1138 14.6466 25.1162 14.6462 25.1186 14.6457C25.1234 14.6449 25.128 14.6441 25.1325 14.6434L25.79 18.589ZM25.4613 14.6162H25.4612V18.6162H25.4613V14.6162ZM15.6049 12.3896C19.6468 17.611 24.885 18.5467 25.1243 18.5876L25.798 14.6447C25.9798 14.6758 21.9177 14.01 18.7679 9.94112L15.6049 12.3896ZM12.7307 2.34276e-05C10.7475 0.25874 10.7475 0.259204 10.7476 0.259693C10.7476 0.25989 10.7477 0.260404 10.7477 0.260797C10.7478 0.261583 10.748 0.262469 10.7481 0.263455C10.7483 0.265427 10.7487 0.267797 10.749 0.270562C10.7498 0.276092 10.7507 0.283202 10.7519 0.291858C10.7543 0.30917 10.7576 0.332677 10.7619 0.36212C10.7705 0.420996 10.783 0.503672 10.7998 0.608078C10.8336 0.816794 10.8851 1.11294 10.9581 1.47988C11.104 2.21254 11.3373 3.2343 11.6903 4.41037C12.3886 6.73642 13.5907 9.78774 15.6049 12.3896L18.7679 9.94111C17.175 7.88346 16.1493 5.3521 15.5215 3.26036C15.2114 2.22754 15.0071 1.33163 14.8811 0.698837C14.8183 0.38306 14.7752 0.134533 14.7485 -0.0307375C14.7351 -0.113325 14.7259 -0.174973 14.7202 -0.213671C14.7174 -0.233016 14.7155 -0.24661 14.7145 -0.254201C14.714 -0.257996 14.7136 -0.26029 14.7135 -0.261049C14.7135 -0.261429 14.7135 -0.261425 14.7135 -0.261034C14.7136 -0.260838 14.7136 -0.260546 14.7137 -0.260156C14.7137 -0.259961 14.7137 -0.259595 14.7137 -0.259498C14.7138 -0.259108 14.7139 -0.258693 12.7307 2.34276e-05ZM10.7307 0V2.34276e-05H14.7307V0H10.7307ZM9.85957 12.445C11.8726 9.83072 13.074 6.76504 13.7718 4.42796C14.1246 3.2463 14.3578 2.21972 14.5036 1.48367C14.5766 1.11502 14.628 0.817547 14.6617 0.607942C14.6786 0.503093 14.6911 0.420085 14.6996 0.360999C14.7039 0.331451 14.7072 0.307871 14.7096 0.290517C14.7108 0.281839 14.7117 0.274717 14.7125 0.269182C14.7128 0.266415 14.7132 0.264044 14.7134 0.262074C14.7135 0.261089 14.7137 0.260205 14.7138 0.25942C14.7138 0.259029 14.7139 0.258516 14.7139 0.25832C14.714 0.257833 14.714 0.25737 12.7307 0C10.7473 -0.25737 10.7473 -0.257783 10.7474 -0.25817C10.7474 -0.258266 10.7475 -0.25863 10.7475 -0.258823C10.7475 -0.259209 10.7476 -0.259497 10.7476 -0.259687C10.7476 -0.260068 10.7476 -0.26006 10.7476 -0.259666C10.7475 -0.258877 10.7472 -0.256547 10.7466 -0.252707C10.7456 -0.245025 10.7437 -0.231307 10.7409 -0.211808C10.7352 -0.1728 10.7259 -0.110717 10.7126 -0.0275783C10.6858 0.138793 10.6427 0.388883 10.5798 0.706596C10.4537 1.34326 10.2493 2.24454 9.93903 3.28353C9.31074 5.38774 8.2843 7.93443 6.69028 10.0045L9.85957 12.445ZM0.8878 18.554C2.32804 18.1864 6.50694 16.7989 9.85957 12.445L6.69028 10.0045C4.08307 13.3905 0.853977 14.4344 -0.101469 14.6783L0.8878 18.554ZM0 18.6162H0.393165V14.6162H0V18.6162ZM0.658114 14.7107C0.569563 14.6904 0.497327 14.6753 0.442905 14.6645C0.415688 14.6591 0.392908 14.6548 0.374752 14.6515C0.365674 14.6498 0.357749 14.6484 0.351002 14.6472C0.347628 14.6466 0.344549 14.6461 0.341766 14.6456C0.340375 14.6453 0.339057 14.6451 0.337815 14.6449C0.337194 14.6448 0.336591 14.6447 0.336007 14.6446C0.335715 14.6445 0.335428 14.6445 0.335145 14.6444C0.335004 14.6444 0.334864 14.6444 0.334725 14.6444C0.334655 14.6444 0.334552 14.6443 0.334517 14.6443C0.334414 14.6443 0.334311 14.6443 0 16.6162C-0.334311 18.588 -0.334413 18.588 -0.334515 18.588C-0.334549 18.588 -0.334651 18.588 -0.334718 18.588C-0.334852 18.5879 -0.334986 18.5879 -0.335118 18.5879C-0.335382 18.5878 -0.335642 18.5878 -0.335898 18.5878C-0.336409 18.5877 -0.336903 18.5876 -0.337379 18.5875C-0.338331 18.5873 -0.339214 18.5872 -0.340026 18.587C-0.341651 18.5868 -0.342996 18.5865 -0.344065 18.5863C-0.346203 18.586 -0.347235 18.5858 -0.347185 18.5858C-0.347083 18.5858 -0.342656 18.5866 -0.334078 18.5883C-0.316911 18.5917 -0.283206 18.5986 -0.234351 18.6098L0.658114 14.7107ZM0 16.7045C0.33598 18.6761 0.336083 18.6761 0.336187 18.6761C0.336222 18.6761 0.336326 18.6761 0.336396 18.6761C0.336535 18.676 0.336676 18.676 0.336818 18.676C0.337102 18.6759 0.337391 18.6759 0.337684 18.6758C0.338271 18.6757 0.338877 18.6756 0.339501 18.6755C0.340749 18.6753 0.342072 18.6751 0.343469 18.6748C0.346263 18.6743 0.349354 18.6738 0.35274 18.6732C0.35951 18.672 0.367458 18.6706 0.37656 18.6689C0.394762 18.6655 0.417589 18.6612 0.444853 18.6558C0.49937 18.6449 0.571702 18.6297 0.66035 18.6093L-0.236588 14.7112C-0.285345 14.7224 -0.318954 14.7293 -0.336026 14.7327C-0.344557 14.7344 -0.348937 14.7352 -0.348992 14.7352C-0.34902 14.7353 -0.347964 14.7351 -0.345803 14.7347C-0.344722 14.7345 -0.343365 14.7342 -0.341729 14.734C-0.340911 14.7338 -0.340023 14.7337 -0.339065 14.7335C-0.338586 14.7334 -0.33809 14.7333 -0.337575 14.7332C-0.337318 14.7332 -0.337057 14.7332 -0.336791 14.7331C-0.336658 14.7331 -0.336524 14.7331 -0.336389 14.733C-0.336321 14.733 -0.336219 14.733 -0.336185 14.733C-0.336083 14.733 -0.33598 14.733 0 16.7045ZM0.395007 14.7045H0V18.7045H0.395007V14.7045ZM9.85644 20.8427C6.50436 16.5125 2.32789 15.1322 0.887602 14.7662L-0.0975883 18.6429C0.861713 18.8867 4.08871 19.9265 6.69342 23.2912L9.85644 20.8427Z" fill="white" mask="url(#path-1-inside-1_64_270)"/>
<mask id="path-3-inside-2_64_270" fill="white">
<path fill-rule="evenodd" clip-rule="evenodd" d="M29.7469 4.33955C28.4305 2.639 28.1207 0.264648 28.1207 0.264648V0.2647C28.1207 0.2647 27.811 2.65168 26.4946 4.36127C25.4067 5.77405 24.0544 6.21759 23.6177 6.32901H23.4745C23.4745 6.32901 23.5017 6.33361 23.5517 6.34505C23.5017 6.35656 23.4745 6.36117 23.4745 6.36117H23.6183C24.0558 6.47229 25.4072 6.91375 26.4946 8.31834C27.811 10.0189 28.1207 12.3932 28.1207 12.3932C28.1207 12.3932 28.4305 10.0189 29.7469 8.31834C31.0633 6.61779 32.7669 6.32901 32.7669 6.32901H28.1207V6.32887H32.7669C32.7669 6.32887 31.0633 6.04009 29.7469 4.33955Z"/>
</mask>
<path fill-rule="evenodd" clip-rule="evenodd" d="M29.7469 4.33955C28.4305 2.639 28.1207 0.264648 28.1207 0.264648V0.2647C28.1207 0.2647 27.811 2.65168 26.4946 4.36127C25.4067 5.77405 24.0544 6.21759 23.6177 6.32901H23.4745C23.4745 6.32901 23.5017 6.33361 23.5517 6.34505C23.5017 6.35656 23.4745 6.36117 23.4745 6.36117H23.6183C24.0558 6.47229 25.4072 6.91375 26.4946 8.31834C27.811 10.0189 28.1207 12.3932 28.1207 12.3932C28.1207 12.3932 28.4305 10.0189 29.7469 8.31834C31.0633 6.61779 32.7669 6.32901 32.7669 6.32901H28.1207V6.32887H32.7669C32.7669 6.32887 31.0633 6.04009 29.7469 4.33955Z" fill="white"/>
<path d="M28.1207 0.264648L28.8445 0.170227L27.3908 0.264648H28.1207ZM29.7469 4.33955L30.3241 3.89274L29.7469 4.33955ZM28.1207 0.2647L28.8446 0.35863L28.8506 0.311861V0.2647H28.1207ZM26.4946 4.36127L27.0729 4.8066L26.4946 4.36127ZM23.6177 6.32901V7.05893H23.7093L23.7981 7.03628L23.6177 6.32901ZM23.4745 6.32901V5.5991L23.3525 7.04866L23.4745 6.32901ZM23.5517 6.34505L23.7153 7.0564L23.7145 5.63352L23.5517 6.34505ZM23.4745 6.36117L23.3519 5.64163L23.4745 7.09109V6.36117ZM23.6183 6.36117L23.798 5.65372L23.7096 5.63126H23.6183V6.36117ZM26.4946 8.31834L25.9174 8.76514H25.9174L26.4946 8.31834ZM28.1207 12.3932L27.3969 12.4877L27.4798 13.1231H28.1207V12.3932ZM29.7469 8.31834L30.3241 8.76514L30.3241 8.76514L29.7469 8.31834ZM32.7669 6.32901L32.8889 7.04867L32.7669 5.5991V6.32901ZM28.1207 6.32901H27.3908V7.05893H28.1207V6.32901ZM28.1207 6.32887V5.59895H27.3908V6.32887H28.1207ZM32.7669 6.32887V7.05878L32.8889 5.60921L32.7669 6.32887ZM28.1207 0.264648C27.3969 0.35907 27.397 0.359239 27.397 0.359417C27.397 0.359489 27.397 0.359677 27.397 0.35982C27.3971 0.360107 27.3971 0.360431 27.3972 0.36079C27.3973 0.36151 27.3974 0.362375 27.3975 0.363384C27.3978 0.365402 27.3981 0.367997 27.3986 0.371156C27.3994 0.377474 27.4006 0.386053 27.4022 0.396799C27.4053 0.418286 27.4099 0.44846 27.416 0.486563C27.4284 0.562736 27.4472 0.670816 27.4738 0.804737C27.5271 1.07213 27.6122 1.44503 27.741 1.87424C27.9959 2.72316 28.4346 3.83676 29.1697 4.78635L30.3241 3.89274C29.7427 3.14178 29.3684 2.21794 29.1392 1.45454C29.0261 1.0776 28.9515 0.750629 28.9056 0.519687C28.8826 0.404441 28.8669 0.313739 28.8571 0.253422C28.8523 0.223281 28.8489 0.200782 28.8468 0.186658C28.8458 0.179599 28.8451 0.174637 28.8447 0.171867C28.8445 0.170482 28.8444 0.169645 28.8444 0.169367C28.8444 0.169229 28.8444 0.16923 28.8444 0.169373C28.8444 0.169444 28.8444 0.169551 28.8444 0.169694C28.8444 0.169765 28.8445 0.169898 28.8445 0.169934C28.8445 0.170076 28.8445 0.170227 28.1207 0.264648ZM28.8506 0.2647V0.264648H27.3908V0.2647H28.8506ZM27.0729 4.8066C27.8075 3.85251 28.246 2.73366 28.5007 1.88072C28.6295 1.44947 28.7146 1.07481 28.7678 0.806178C28.7944 0.671638 28.8132 0.563071 28.8255 0.486574C28.8316 0.448308 28.8362 0.418014 28.8393 0.39645C28.8409 0.385666 28.8421 0.37706 28.8429 0.370727C28.8434 0.36756 28.8437 0.364961 28.844 0.362941C28.8441 0.361931 28.8442 0.361066 28.8443 0.360347C28.8444 0.359987 28.8444 0.359664 28.8445 0.359378C28.8445 0.359235 28.8445 0.359048 28.8445 0.358976C28.8445 0.358799 28.8446 0.35863 28.1207 0.2647C27.3969 0.17077 27.3969 0.17062 27.3969 0.170478C27.3969 0.170443 27.3969 0.170311 27.3969 0.17024C27.397 0.1701 27.397 0.169994 27.397 0.169925C27.397 0.169786 27.397 0.169789 27.397 0.169933C27.3969 0.17022 27.3968 0.171071 27.3966 0.172472C27.3962 0.175276 27.3956 0.180282 27.3945 0.187399C27.3925 0.201635 27.3891 0.224293 27.3842 0.254635C27.3744 0.315354 27.3587 0.406626 27.3357 0.522579C27.2897 0.754934 27.2151 1.08387 27.1019 1.46306C26.8726 2.231 26.498 3.16044 25.9162 3.91595L27.0729 4.8066ZM23.7981 7.03628C24.3233 6.90229 25.849 6.39608 27.0729 4.8066L25.9162 3.91595C24.9644 5.15203 23.7855 5.53289 23.4372 5.62175L23.7981 7.03628ZM23.4745 7.05893H23.6177V5.5991H23.4745V7.05893ZM23.7145 5.63352C23.6822 5.62615 23.6559 5.62065 23.6361 5.61673C23.6262 5.61476 23.6179 5.6132 23.6113 5.61198C23.608 5.61138 23.6051 5.61086 23.6027 5.61043C23.6014 5.61021 23.6003 5.61001 23.5993 5.60984C23.5988 5.60975 23.5983 5.60967 23.5979 5.60959C23.5976 5.60955 23.5974 5.60951 23.5972 5.60948C23.5971 5.60946 23.597 5.60944 23.5969 5.60942C23.5969 5.60942 23.5968 5.60941 23.5968 5.6094C23.5967 5.60939 23.5967 5.60939 23.5967 5.60939C23.5966 5.60938 23.5966 5.60937 23.4745 6.32901C23.3525 7.04866 23.3525 7.04865 23.3524 7.04864C23.3524 7.04864 23.3524 7.04864 23.3523 7.04863C23.3523 7.04862 23.3523 7.04861 23.3522 7.04861C23.3521 7.04859 23.352 7.04857 23.3519 7.04856C23.3517 7.04853 23.3516 7.0485 23.3514 7.04847C23.351 7.04841 23.3507 7.04835 23.3504 7.0483C23.3498 7.0482 23.3493 7.04811 23.3489 7.04804C23.3482 7.04791 23.3478 7.04784 23.3478 7.04784C23.3478 7.04785 23.3495 7.04814 23.3526 7.04876C23.3588 7.05 23.3711 7.05252 23.3889 7.05659L23.7145 5.63352ZM23.4745 6.36117C23.5972 7.08072 23.5972 7.08071 23.5972 7.08071C23.5973 7.0807 23.5973 7.0807 23.5973 7.08069C23.5974 7.08069 23.5974 7.08068 23.5975 7.08067C23.5976 7.08065 23.5977 7.08063 23.5978 7.08061C23.598 7.08058 23.5982 7.08054 23.5984 7.0805C23.5989 7.08042 23.5994 7.08034 23.5999 7.08025C23.6009 7.08007 23.602 7.07987 23.6033 7.07966C23.6057 7.07922 23.6086 7.0787 23.6119 7.07809C23.6186 7.07686 23.6269 7.07528 23.6368 7.07331C23.6567 7.06936 23.683 7.06382 23.7153 7.0564L23.388 5.63371C23.3703 5.63779 23.3581 5.64031 23.3519 5.64155C23.3488 5.64216 23.3472 5.64246 23.3472 5.64246C23.3472 5.64246 23.3476 5.64239 23.3483 5.64225C23.3487 5.64218 23.3492 5.64209 23.3498 5.64199C23.3501 5.64194 23.3505 5.64188 23.3508 5.64182C23.351 5.64179 23.3512 5.64176 23.3513 5.64173C23.3514 5.64171 23.3515 5.6417 23.3516 5.64168C23.3517 5.64167 23.3517 5.64166 23.3518 5.64165C23.3518 5.64165 23.3518 5.64164 23.3519 5.64164C23.3519 5.64164 23.3519 5.64163 23.4745 6.36117ZM23.6183 5.63126H23.4745V7.09109H23.6183V5.63126ZM27.0717 7.87153C25.848 6.29071 24.3233 5.78713 23.798 5.65372L23.4386 7.06863C23.7883 7.15745 24.9665 7.53678 25.9174 8.76514L27.0717 7.87153ZM28.1207 12.3932C28.8445 12.2988 28.8445 12.2986 28.8445 12.2985C28.8444 12.2984 28.8444 12.2982 28.8444 12.2981C28.8444 12.2978 28.8443 12.2975 28.8443 12.2971C28.8442 12.2964 28.8441 12.2955 28.8439 12.2945C28.8437 12.2925 28.8433 12.2899 28.8429 12.2867C28.842 12.2804 28.8408 12.2718 28.8392 12.2611C28.8361 12.2396 28.8315 12.2094 28.8254 12.1713C28.8131 12.0951 28.7943 11.9871 28.7676 11.8531C28.7144 11.5858 28.6292 11.2129 28.5004 10.7836C28.2456 9.93472 27.8068 8.82112 27.0717 7.87153L25.9174 8.76514C26.4987 9.5161 26.873 10.4399 27.1022 11.2033C27.2153 11.5803 27.2899 11.9073 27.3359 12.1382C27.3588 12.2534 27.3745 12.3441 27.3843 12.4045C27.3892 12.4346 27.3925 12.4571 27.3946 12.4712C27.3956 12.4783 27.3963 12.4832 27.3967 12.486C27.3969 12.4874 27.397 12.4882 27.397 12.4885C27.3971 12.4887 27.3971 12.4887 27.397 12.4885C27.397 12.4884 27.397 12.4883 27.397 12.4882C27.397 12.4881 27.397 12.488 27.397 12.4879C27.397 12.4878 27.3969 12.4877 28.1207 12.3932ZM28.1207 13.1231C28.6023 12.9418 28.8445 12.4879 28.8445 12.488C28.8444 12.488 28.8444 12.4882 28.8444 12.4882C28.8444 12.4884 28.8444 12.4885 28.8444 12.4885C28.8444 12.4887 28.8444 12.4887 28.8444 12.4885C28.8444 12.4882 28.8445 12.4874 28.8447 12.486C28.8451 12.4832 28.8458 12.4783 28.8468 12.4712C28.8489 12.4571 28.8523 12.4346 28.8571 12.4045C28.8669 12.3441 28.8826 12.2534 28.9056 12.1382C28.9515 11.9073 29.0261 11.5803 29.1392 11.2033C29.3684 10.4399 29.7427 9.5161 30.3241 8.76514L29.1697 7.87153C28.4346 8.82112 27.9959 9.93472 27.741 10.7836C27.6122 11.2129 27.5271 11.5858 27.4738 11.8531C27.4472 11.9871 27.4284 12.0951 27.416 12.1713C27.4099 12.2094 27.4053 12.2396 27.4022 12.2611C27.4006 12.2718 27.3994 12.2804 27.3986 12.2867C27.3981 12.2899 27.3978 12.2925 27.3975 12.2945C27.3974 12.2955 27.3973 12.2964 27.3972 12.2971C27.3971 12.2974 27.3971 12.2977 27.397 12.298C27.397 12.2982 27.397 12.2983 27.397 12.2984C27.397 12.2985 27.6392 11.8447 28.1207 11.6633V13.1231ZM30.3241 8.76514C30.8995 8.02177 31.557 7.58967 32.0676 7.34342C32.323 7.22024 32.54 7.14442 32.6883 7.10031C32.7623 7.0783 32.8187 7.06432 32.8535 7.05637C32.8709 7.05239 32.8829 7.04993 32.889 7.04873C32.892 7.04813 32.8936 7.04785 32.8936 7.04785C32.8936 7.04785 32.8932 7.04792 32.8924 7.04806C32.892 7.04813 32.8915 7.04821 32.8909 7.04831C32.8906 7.04836 32.8903 7.04842 32.89 7.04848C32.8898 7.04851 32.8895 7.04855 32.8894 7.04857C32.8892 7.04862 32.8889 7.04867 32.7669 6.32901C32.6449 5.60936 32.6446 5.60941 32.6443 5.60947C32.6442 5.60949 32.6439 5.60954 32.6436 5.60958C32.6432 5.60965 32.6427 5.60974 32.6422 5.60982C32.6412 5.61 32.6401 5.61019 32.6389 5.6104C32.6365 5.61083 32.6336 5.61134 32.6303 5.61194C32.6238 5.61314 32.6156 5.61468 32.6059 5.61661C32.5863 5.62047 32.5605 5.62588 32.5287 5.63312C32.4653 5.6476 32.3783 5.66947 32.272 5.7011C32.0597 5.76428 31.7685 5.86694 31.4335 6.02852C30.7632 6.35179 29.9107 6.91435 29.1697 7.87153L30.3241 8.76514ZM32.7669 5.5991H28.1207V7.05893H32.7669V5.5991ZM27.3908 6.32887V6.32901H28.8506V6.32887H27.3908ZM32.7669 5.59895H28.1207V7.05878H32.7669V5.59895ZM29.1697 4.78635C29.9107 5.74353 30.7632 6.30609 31.4335 6.62936C31.7685 6.79094 32.0597 6.8936 32.272 6.95678C32.3783 6.98841 32.4653 7.01028 32.5287 7.02476C32.5605 7.032 32.5863 7.03741 32.6059 7.04127C32.6156 7.0432 32.6238 7.04474 32.6303 7.04594C32.6336 7.04654 32.6365 7.04705 32.6389 7.04748C32.6401 7.04769 32.6412 7.04788 32.6422 7.04806C32.6427 7.04814 32.6432 7.04823 32.6436 7.0483C32.6439 7.04834 32.6442 7.0484 32.6443 7.04841C32.6446 7.04847 32.6449 7.04852 32.7669 6.32887C32.8889 5.60921 32.8892 5.60926 32.8894 5.60931C32.8895 5.60933 32.8898 5.60937 32.89 5.6094C32.8903 5.60946 32.8906 5.60952 32.8909 5.60957C32.8915 5.60967 32.892 5.60976 32.8924 5.60982C32.8932 5.60996 32.8936 5.61003 32.8936 5.61003C32.8936 5.61003 32.892 5.60975 32.889 5.60915C32.8829 5.60795 32.8709 5.60549 32.8535 5.60151C32.8187 5.59356 32.7623 5.57958 32.6883 5.55757C32.54 5.51346 32.323 5.43764 32.0676 5.31446C31.557 5.06821 30.8995 4.63611 30.3241 3.89274L29.1697 4.78635Z" fill="white" mask="url(#path-3-inside-2_64_270)"/>
</svg>

