<svg width="26" height="34" viewBox="0 0 26 34" fill="none" xmlns="http://www.w3.org/2000/svg">
<mask id="path-1-inside-1_389_161" fill="white">
<path fill-rule="evenodd" clip-rule="evenodd" d="M8.27493 22.8345C11.8819 27.4941 12.7307 33.9999 12.7307 33.9999C12.7307 33.9999 13.5794 27.4941 17.1864 22.8345C20.7822 18.1894 25.4324 17.3887 25.4612 17.3838H25.4613C25.4613 17.3838 25.4613 17.3838 25.4613 17.3838C25.4613 17.3837 25.4613 17.3837 25.4613 17.3837H25.4612C25.4324 17.3788 20.7822 16.5781 17.1864 11.933C13.5794 7.2734 12.7307 0.767602 12.7307 0.767602V0.767578C12.7307 0.767578 11.8819 7.30798 8.27493 11.9923C5.29501 15.8623 1.59101 17.078 0.393165 17.3837H0C0 17.3837 0.0744755 17.3964 0.211881 17.4278C0.0744755 17.4594 0 17.4721 0 17.4721H0.395007C1.5948 17.777 5.29653 18.987 8.27493 22.8345Z"/>
</mask>
<path fill-rule="evenodd" clip-rule="evenodd" d="M8.27493 22.8345C11.8819 27.4941 12.7307 33.9999 12.7307 33.9999C12.7307 33.9999 13.5794 27.4941 17.1864 22.8345C20.7822 18.1894 25.4324 17.3887 25.4612 17.3838H25.4613C25.4613 17.3838 25.4613 17.3838 25.4613 17.3838C25.4613 17.3837 25.4613 17.3837 25.4613 17.3837H25.4612C25.4324 17.3788 20.7822 16.5781 17.1864 11.933C13.5794 7.2734 12.7307 0.767602 12.7307 0.767602V0.767578C12.7307 0.767578 11.8819 7.30798 8.27493 11.9923C5.29501 15.8623 1.59101 17.078 0.393165 17.3837H0C0 17.3837 0.0744755 17.3964 0.211881 17.4278C0.0744755 17.4594 0 17.4721 0 17.4721H0.395007C1.5948 17.777 5.29653 18.987 8.27493 22.8345Z" fill="white"/>
<path d="M12.7307 33.9999L10.7475 34.2586H14.7139L12.7307 33.9999ZM8.27493 22.8345L6.69342 24.0588H6.69342L8.27493 22.8345ZM17.1864 22.8345L18.7679 24.0588H18.7679L17.1864 22.8345ZM25.4612 17.3838V15.3838H25.2915L25.1243 15.4123L25.4612 17.3838ZM25.4613 17.3838V19.3838L25.8191 15.416L25.4613 17.3838ZM25.4613 17.3838L25.1325 15.411V19.3565L25.4613 17.3838ZM25.4613 17.3837L25.8191 19.3515L25.4613 15.3837V17.3837ZM25.4612 17.3837L25.1243 19.3552L25.2915 19.3837H25.4612V17.3837ZM17.1864 11.933L18.7679 10.7087L17.1864 11.933ZM12.7307 0.767602H10.7307V0.897506L10.7475 1.02632L12.7307 0.767602ZM12.7307 0.767578H14.7307L10.7473 0.510208L12.7307 0.767578ZM8.27493 11.9923L6.69028 10.7721L8.27493 11.9923ZM0.393165 17.3837V19.3837H0.644385L0.8878 19.3216L0.393165 17.3837ZM0 17.3837V15.3837L-0.334311 19.3556L0 17.3837ZM0.211881 17.4278L0.66035 19.3769L0.658114 15.4782L0.211881 17.4278ZM0 17.4721L-0.33598 15.5005L0 19.4721V17.4721ZM0.395007 17.4721L0.887602 15.5337L0.645157 15.4721H0.395007V17.4721ZM12.7307 33.9999C14.7139 33.7412 14.7138 33.7407 14.7137 33.7402C14.7137 33.74 14.7136 33.7395 14.7136 33.7391C14.7135 33.7383 14.7134 33.7375 14.7132 33.7365C14.713 33.7345 14.7127 33.7321 14.7123 33.7294C14.7115 33.7238 14.7106 33.7167 14.7094 33.7081C14.707 33.6908 14.7037 33.6672 14.6994 33.6378C14.6909 33.5789 14.6784 33.4963 14.6615 33.3918C14.6277 33.1831 14.5762 32.887 14.5032 32.52C14.3573 31.7874 14.124 30.7656 13.771 29.5896C13.0728 27.2635 11.8706 24.2122 9.85644 21.6103L6.69342 24.0588C8.28627 26.1165 9.31198 28.6478 9.93987 30.7396C10.2499 31.7724 10.4542 32.6683 10.5802 33.3011C10.6431 33.6169 10.6861 33.8654 10.7128 34.0307C10.7262 34.1133 10.7354 34.1749 10.7411 34.2136C10.7439 34.2329 10.7458 34.2465 10.7468 34.2541C10.7474 34.2579 10.7477 34.2602 10.7478 34.261C10.7478 34.2614 10.7478 34.2613 10.7478 34.261C10.7477 34.2608 10.7477 34.2605 10.7477 34.2601C10.7476 34.2599 10.7476 34.2595 10.7476 34.2594C10.7475 34.259 10.7475 34.2586 12.7307 33.9999ZM12.7307 33.9999C14.7139 34.2586 14.7138 34.259 14.7137 34.2594C14.7137 34.2595 14.7137 34.2599 14.7137 34.2601C14.7136 34.2605 14.7136 34.2608 14.7135 34.261C14.7135 34.2613 14.7135 34.2614 14.7135 34.261C14.7136 34.2602 14.714 34.2579 14.7145 34.2541C14.7155 34.2465 14.7174 34.2329 14.7202 34.2136C14.7259 34.1749 14.7351 34.1133 14.7485 34.0307C14.7752 33.8654 14.8183 33.6169 14.8811 33.3011C15.0071 32.6683 15.2114 31.7724 15.5215 30.7396C16.1493 28.6478 17.175 26.1165 18.7679 24.0588L15.6049 21.6103C13.5907 24.2122 12.3886 27.2635 11.6903 29.5896C11.3373 30.7656 11.104 31.7874 10.9581 32.52C10.8851 32.887 10.8336 33.1831 10.7998 33.3918C10.783 33.4963 10.7705 33.5789 10.7619 33.6378C10.7576 33.6672 10.7543 33.6908 10.7519 33.7081C10.7507 33.7167 10.7498 33.7238 10.749 33.7294C10.7487 33.7321 10.7483 33.7345 10.7481 33.7365C10.748 33.7375 10.7478 33.7383 10.7477 33.7391C10.7477 33.7395 10.7476 33.74 10.7476 33.7402C10.7475 33.7407 10.7475 33.7412 12.7307 33.9999ZM18.7679 24.0588C21.9177 19.99 25.9798 19.3241 25.798 19.3552L25.1243 15.4123C24.885 15.4532 19.6468 16.3889 15.6049 21.6103L18.7679 24.0588ZM25.4613 15.3838H25.4612V19.3838H25.4613V15.3838ZM25.1325 19.3565C25.128 19.3558 25.1234 19.355 25.1186 19.3542C25.1162 19.3538 25.1138 19.3533 25.1112 19.3529C25.11 19.3527 25.1087 19.3524 25.1074 19.3522C25.1068 19.3521 25.1062 19.352 25.1055 19.3519C25.1052 19.3518 25.1049 19.3517 25.1045 19.3517C25.1044 19.3517 25.1042 19.3516 25.104 19.3516C25.104 19.3516 25.1039 19.3516 25.1038 19.3515C25.1038 19.3515 25.1037 19.3515 25.1037 19.3515C25.1036 19.3515 25.1036 19.3515 25.1036 19.3515C25.1036 19.3515 25.1035 19.3515 25.4613 17.3838C25.8191 15.416 25.8191 15.416 25.819 15.416C25.819 15.416 25.819 15.416 25.819 15.416C25.8189 15.416 25.8189 15.416 25.8188 15.416C25.8188 15.416 25.8187 15.4159 25.8186 15.4159C25.8184 15.4159 25.8183 15.4159 25.8181 15.4158C25.8178 15.4158 25.8175 15.4157 25.8171 15.4157C25.8165 15.4156 25.8158 15.4154 25.8152 15.4153C25.8139 15.4151 25.8126 15.4149 25.8114 15.4146C25.8089 15.4142 25.8064 15.4138 25.804 15.4133C25.7992 15.4125 25.7945 15.4117 25.79 15.411L25.1325 19.3565ZM25.79 19.3565C25.7945 19.3558 25.7992 19.355 25.804 19.3542C25.8064 19.3537 25.8089 19.3533 25.8114 19.3529C25.8126 19.3526 25.8139 19.3524 25.8152 19.3522C25.8158 19.3521 25.8165 19.352 25.8171 19.3518C25.8175 19.3518 25.8178 19.3517 25.8181 19.3517C25.8183 19.3516 25.8184 19.3516 25.8186 19.3516C25.8187 19.3516 25.8188 19.3515 25.8188 19.3515C25.8189 19.3515 25.8189 19.3515 25.819 19.3515C25.819 19.3515 25.819 19.3515 25.819 19.3515C25.8191 19.3515 25.8191 19.3515 25.4613 17.3837C25.1035 15.416 25.1036 15.416 25.1036 15.416C25.1036 15.416 25.1036 15.416 25.1037 15.416C25.1037 15.416 25.1038 15.416 25.1038 15.416C25.1039 15.4159 25.104 15.4159 25.104 15.4159C25.1042 15.4159 25.1044 15.4159 25.1045 15.4158C25.1049 15.4158 25.1052 15.4157 25.1055 15.4156C25.1062 15.4155 25.1068 15.4154 25.1074 15.4153C25.1087 15.4151 25.11 15.4148 25.1112 15.4146C25.1138 15.4142 25.1162 15.4137 25.1186 15.4133C25.1234 15.4125 25.128 15.4117 25.1325 15.411L25.79 19.3565ZM25.4613 15.3837H25.4612V19.3837H25.4613V15.3837ZM15.6049 13.1572C19.6468 18.3786 24.885 19.3143 25.1243 19.3552L25.798 15.4123C25.9798 15.4434 21.9177 14.7776 18.7679 10.7087L15.6049 13.1572ZM12.7307 0.767602C10.7475 1.02632 10.7475 1.02678 10.7476 1.02727C10.7476 1.02747 10.7477 1.02798 10.7477 1.02838C10.7478 1.02916 10.748 1.03005 10.7481 1.03103C10.7483 1.03301 10.7487 1.03538 10.749 1.03814C10.7498 1.04367 10.7507 1.05078 10.7519 1.05944C10.7543 1.07675 10.7576 1.10025 10.7619 1.1297C10.7705 1.18857 10.783 1.27125 10.7998 1.37566C10.8336 1.58437 10.8851 1.88051 10.9581 2.24746C11.104 2.98012 11.3373 4.00188 11.6903 5.17795C12.3886 7.504 13.5907 10.5553 15.6049 13.1572L18.7679 10.7087C17.175 8.65104 16.1493 6.11968 15.5215 4.02794C15.2114 2.99512 15.0071 2.09921 14.8811 1.46641C14.8183 1.15064 14.7752 0.902111 14.7485 0.736841C14.7351 0.654253 14.7259 0.592605 14.7202 0.553907C14.7174 0.534562 14.7155 0.520969 14.7145 0.513377C14.714 0.509582 14.7136 0.507289 14.7135 0.506529C14.7135 0.506149 14.7135 0.506153 14.7135 0.506544C14.7136 0.50674 14.7136 0.507032 14.7137 0.507422C14.7137 0.507617 14.7137 0.507983 14.7137 0.50808C14.7138 0.50847 14.7139 0.508885 12.7307 0.767602ZM10.7307 0.767578V0.767602H14.7307V0.767578H10.7307ZM9.85957 13.2125C11.8726 10.5983 13.074 7.53262 13.7718 5.19553C14.1246 4.01388 14.3578 2.98729 14.5036 2.25124C14.5766 1.8826 14.628 1.58513 14.6617 1.37552C14.6786 1.27067 14.6911 1.18766 14.6996 1.12858C14.7039 1.09903 14.7072 1.07545 14.7096 1.05809C14.7108 1.04942 14.7117 1.0423 14.7125 1.03676C14.7128 1.03399 14.7132 1.03162 14.7134 1.02965C14.7135 1.02867 14.7137 1.02778 14.7138 1.027C14.7138 1.02661 14.7139 1.02609 14.7139 1.0259C14.714 1.02541 14.714 1.02495 12.7307 0.767578C10.7473 0.510208 10.7473 0.509795 10.7474 0.509408C10.7474 0.509312 10.7475 0.508948 10.7475 0.508756C10.7475 0.50837 10.7476 0.508082 10.7476 0.507891C10.7476 0.50751 10.7476 0.507518 10.7476 0.507912C10.7475 0.508701 10.7472 0.511031 10.7466 0.514871C10.7456 0.522554 10.7437 0.536271 10.7409 0.55577C10.7352 0.594778 10.7259 0.656861 10.7126 0.74C10.6858 0.906372 10.6427 1.15646 10.5798 1.47417C10.4537 2.11083 10.2493 3.01212 9.93903 4.05111C9.31074 6.15532 8.2843 8.70201 6.69028 10.7721L9.85957 13.2125ZM0.8878 19.3216C2.32804 18.954 6.50694 17.5665 9.85957 13.2125L6.69028 10.7721C4.08307 14.158 0.853977 15.202 -0.101469 15.4459L0.8878 19.3216ZM0 19.3837H0.393165V15.3837H0V19.3837ZM0.658114 15.4782C0.569563 15.458 0.497327 15.4429 0.442905 15.4321C0.415688 15.4267 0.392908 15.4224 0.374752 15.419C0.365674 15.4174 0.357749 15.416 0.351002 15.4148C0.347628 15.4142 0.344549 15.4136 0.341766 15.4132C0.340375 15.4129 0.339057 15.4127 0.337815 15.4125C0.337194 15.4124 0.336591 15.4123 0.336007 15.4122C0.335715 15.4121 0.335428 15.4121 0.335145 15.412C0.335004 15.412 0.334864 15.412 0.334725 15.4119C0.334655 15.4119 0.334552 15.4119 0.334517 15.4119C0.334414 15.4119 0.334311 15.4119 0 17.3837C-0.334311 19.3556 -0.334413 19.3556 -0.334515 19.3556C-0.334549 19.3556 -0.334651 19.3555 -0.334718 19.3555C-0.334852 19.3555 -0.334986 19.3555 -0.335118 19.3555C-0.335382 19.3554 -0.335642 19.3554 -0.335898 19.3553C-0.336409 19.3552 -0.336903 19.3552 -0.337379 19.3551C-0.338331 19.3549 -0.339214 19.3548 -0.340026 19.3546C-0.341651 19.3543 -0.342996 19.3541 -0.344065 19.3539C-0.346203 19.3535 -0.347235 19.3534 -0.347185 19.3534C-0.347083 19.3534 -0.342656 19.3542 -0.334078 19.3559C-0.316911 19.3593 -0.283206 19.3662 -0.234351 19.3774L0.658114 15.4782ZM0 17.4721C0.33598 19.4437 0.336083 19.4437 0.336187 19.4437C0.336222 19.4437 0.336326 19.4436 0.336396 19.4436C0.336535 19.4436 0.336676 19.4436 0.336818 19.4436C0.337102 19.4435 0.337391 19.4435 0.337684 19.4434C0.338271 19.4433 0.338877 19.4432 0.339501 19.4431C0.340749 19.4429 0.342072 19.4427 0.343469 19.4424C0.346263 19.4419 0.349354 19.4414 0.35274 19.4408C0.35951 19.4396 0.367458 19.4382 0.37656 19.4365C0.394762 19.4331 0.417589 19.4288 0.444853 19.4233C0.49937 19.4125 0.571702 19.3973 0.66035 19.3769L-0.236588 15.4787C-0.285345 15.49 -0.318954 15.4969 -0.336026 15.5003C-0.344557 15.502 -0.348937 15.5028 -0.348992 15.5028C-0.34902 15.5028 -0.347964 15.5026 -0.345803 15.5023C-0.344722 15.5021 -0.343365 15.5018 -0.341729 15.5015C-0.340911 15.5014 -0.340023 15.5012 -0.339065 15.5011C-0.338586 15.501 -0.33809 15.5009 -0.337575 15.5008C-0.337318 15.5008 -0.337057 15.5007 -0.336791 15.5007C-0.336658 15.5007 -0.336524 15.5006 -0.336389 15.5006C-0.336321 15.5006 -0.336219 15.5006 -0.336185 15.5006C-0.336083 15.5006 -0.33598 15.5005 0 17.4721ZM0.395007 15.4721H0V19.4721H0.395007V15.4721ZM9.85644 21.6103C6.50436 17.2801 2.32789 15.8998 0.887602 15.5337L-0.0975883 19.4105C0.861713 19.6543 4.08871 20.694 6.69342 24.0588L9.85644 21.6103Z" fill="white" mask="url(#path-1-inside-1_389_161)"/>
</svg>
