<svg width="90" height="26" viewBox="0 0 90 26" fill="none" xmlns="http://www.w3.org/2000/svg">
<path d="M13.5235 0.0429688C6.07731 0.0429688 0.0407104 5.84545 0.0407104 13.003C0.0407104 20.1609 6.07731 25.9629 13.5235 25.9629C20.9705 25.9629 27.0064 20.1609 27.0064 13.003C27.0064 5.84592 20.9705 0.0435878 13.5233 0.0435878L13.5235 0.0429688ZM19.7066 18.7351C19.4651 19.1158 18.9467 19.2365 18.5506 19.0028C15.385 17.1442 11.3999 16.7232 6.70667 17.7539C6.25441 17.853 5.80361 17.5806 5.70057 17.1457C5.59704 16.7108 5.87928 16.2775 6.33266 16.1784C11.4686 15.0505 15.8741 15.5362 19.4281 17.6239C19.8241 17.8576 19.9497 18.3544 19.7066 18.7351ZM21.3569 15.2062C21.0526 15.6817 20.4053 15.8318 19.9111 15.5393C16.2869 13.398 10.7625 12.7779 6.47579 14.0286C5.91985 14.1901 5.33268 13.8889 5.16395 13.3554C4.99651 12.821 5.30998 12.2577 5.86495 12.0952C10.7615 10.6671 16.8488 11.3588 21.0107 13.8172C21.505 14.1097 21.6612 14.7319 21.3569 15.2064V15.2062ZM21.4985 11.5316C17.1531 9.05057 9.9837 8.82245 5.83484 10.0328C5.16862 10.2271 4.46407 9.86555 4.26218 9.22514C4.06028 8.58443 4.43606 7.90766 5.10277 7.71297C9.86536 6.3232 17.7826 6.59172 22.7856 9.44661C23.3861 9.78848 23.5826 10.5324 23.2267 11.1077C22.8725 11.6837 22.0965 11.8736 21.4992 11.5316H21.4985ZM36.7229 12.007C34.3948 11.4734 33.981 11.0988 33.981 10.3119C33.981 9.56841 34.7087 9.06806 35.7923 9.06806C36.842 9.06806 37.8821 9.448 38.9737 10.2302C39.0059 10.2538 39.0477 10.2633 39.088 10.2571C39.1299 10.2512 39.1653 10.2297 39.1894 10.1974L40.3261 8.65717C40.3728 8.59372 40.3599 8.50628 40.2971 8.45784C38.9978 7.45606 37.5359 6.96903 35.8261 6.96903C33.3129 6.96903 31.5563 8.41899 31.5563 10.4936C31.5563 12.7183 33.0714 13.506 35.6892 14.1141C37.9159 14.6073 38.2926 15.0205 38.2926 15.759C38.2926 16.5777 37.5327 17.0869 36.3091 17.0869C34.9503 17.0869 33.841 16.6458 32.6012 15.6151C32.5706 15.5888 32.5288 15.578 32.4901 15.5795C32.4483 15.5826 32.4113 15.6012 32.3855 15.6306L31.1104 17.0884C31.0572 17.1503 31.0637 17.2401 31.1248 17.2927C32.5674 18.5308 34.3417 19.1839 36.2576 19.1839C38.9656 19.1839 40.7157 17.7617 40.7157 15.5594C40.7206 13.7012 39.563 12.672 36.7277 12.009L36.7229 12.007ZM46.8435 9.80009C45.6698 9.80009 44.707 10.2446 43.9116 11.1553V10.1302C43.9116 10.0493 43.844 9.98332 43.7603 9.98332H41.6753C41.5916 9.98332 41.524 10.0493 41.524 10.1302V21.5208C41.524 21.6013 41.5916 21.6678 41.6753 21.6678H43.7603C43.844 21.6678 43.9116 21.6013 43.9116 21.5208V17.9257C44.707 18.7815 45.6698 19.2009 46.8435 19.2009C49.025 19.2009 51.234 17.5868 51.234 14.501C51.2372 11.4146 49.0283 9.79993 46.8451 9.79993L46.8435 9.80009ZM48.8093 14.501C48.8093 16.0717 47.803 17.1689 46.3605 17.1689C44.9356 17.1689 43.8601 16.0221 43.8601 14.501C43.8601 12.9797 44.9356 11.8332 46.3605 11.8332C47.7789 11.833 48.8093 12.9548 48.8093 14.5008V14.501ZM56.8932 9.80009C54.0837 9.80009 51.8828 11.8795 51.8828 14.5346C51.8828 17.1612 54.0692 19.218 56.8594 19.218C59.6785 19.218 61.8859 17.1457 61.8859 14.501C61.8859 11.8652 59.693 9.80039 56.8932 9.80039V9.80009ZM56.8932 17.1844C55.3991 17.1844 54.2721 16.0299 54.2721 14.5002C54.2721 12.9636 55.3605 11.8485 56.8594 11.8485C58.3631 11.8485 59.4966 13.0026 59.4966 14.5338C59.4966 16.0701 58.4018 17.1844 56.8932 17.1844ZM67.8848 9.98332H65.5905V7.72906C65.5905 7.64828 65.5229 7.58235 65.4392 7.58235H63.3542C63.2705 7.58235 63.2012 7.64828 63.2012 7.72906V9.98332H62.1998C62.1161 9.98332 62.0485 10.0493 62.0485 10.1302V11.8522C62.0485 11.933 62.1161 11.9991 62.1998 11.9991H63.2012V16.4555C63.2012 18.2553 64.1334 19.1684 65.9737 19.1684C66.7207 19.1684 67.3406 19.0199 67.925 18.7011C67.9733 18.6763 68.0023 18.6268 68.0023 18.5742V16.9337C68.0023 16.8842 67.9749 16.8362 67.9299 16.8099C67.8848 16.782 67.8284 16.7805 67.7817 16.8037C67.3809 16.9971 66.9928 17.0869 66.5581 17.0869C65.89 17.0869 65.5905 16.7944 65.5905 16.1413V11.9999H67.8848C67.9685 11.9999 68.0361 11.9339 68.0361 11.853V10.1311C68.0393 10.0502 67.9717 9.98425 67.8864 9.98425L67.8848 9.98332ZM75.8769 9.99214V9.71527C75.8769 8.90076 76.2021 8.53754 76.9299 8.53754C77.3646 8.53754 77.7139 8.62049 78.1052 8.74585C78.1535 8.76039 78.2034 8.75312 78.242 8.72542C78.2823 8.69772 78.3048 8.6533 78.3048 8.60625V6.9178C78.3048 6.85326 78.263 6.79616 78.197 6.77712C77.7848 6.65904 77.2567 6.53786 76.4646 6.53786C74.5406 6.53786 73.5215 7.58003 73.5215 9.55061V9.97466H72.52C72.4363 9.97466 72.3671 10.0406 72.3671 10.1214V11.8522C72.3671 11.933 72.4363 11.9991 72.52 11.9991H73.5215V18.8713C73.5215 18.9533 73.5907 19.0183 73.6744 19.0183H75.7578C75.8431 19.0183 75.9107 18.9533 75.9107 18.8713V11.9996H77.8572L80.839 18.8713C80.5009 19.5925 80.1676 19.7364 79.7136 19.7364C79.3465 19.7364 78.9585 19.6312 78.564 19.4222C78.527 19.4037 78.4819 19.4006 78.4433 19.4114C78.403 19.4253 78.3692 19.4532 78.3531 19.4903L77.6463 20.9807C77.6125 21.0519 77.6415 21.1339 77.7123 21.1711C78.4497 21.5549 79.1147 21.7189 79.9374 21.7189C81.4766 21.7189 82.3283 21.0287 83.0769 19.1746L86.693 10.1927C86.7123 10.1475 86.7059 10.0965 86.6769 10.0564C86.6495 10.0166 86.6029 9.99261 86.5529 9.99261H84.3826C84.3166 9.99261 84.2587 10.0324 84.2377 10.091L82.0143 16.1939L79.58 10.087C79.5574 10.0302 79.5011 9.99261 79.4383 9.99261H75.8769V9.99214ZM71.2433 9.98332H69.1583C69.0746 9.98332 69.0054 10.0493 69.0054 10.1302V18.8713C69.0054 18.9533 69.0746 19.0183 69.1583 19.0183H71.2433C71.327 19.0183 71.3962 18.9533 71.3962 18.8713V10.1308C71.3962 10.0499 71.3286 9.98394 71.2433 9.98394V9.98332ZM70.2129 6.003C69.3869 6.003 68.7172 6.64557 68.7172 7.43935C68.7172 8.23359 69.3869 8.87693 70.2129 8.87693C71.0388 8.87693 71.707 8.23359 71.707 7.43935C71.707 6.64573 71.0372 6.003 70.2129 6.003ZM88.4737 12.794C87.6494 12.794 87.007 12.1571 87.007 11.3838C87.007 10.6104 87.6574 9.9663 88.4818 9.9663C89.3061 9.9663 89.9485 10.603 89.9485 11.3757C89.9485 12.1491 89.298 12.794 88.4737 12.794ZM88.4818 10.1065C87.7299 10.1065 87.1615 10.6807 87.1615 11.3838C87.1615 12.0865 87.7267 12.653 88.4737 12.653C89.2256 12.653 89.7939 12.0793 89.7939 11.3757C89.7939 10.6729 89.2288 10.1065 88.4818 10.1065ZM88.807 11.5207L89.2224 12.0791H88.8714L88.4978 11.5668H88.1775V12.0791H87.8844V10.599H88.5703C88.9293 10.599 89.1644 10.7749 89.1644 11.0711C89.166 11.3138 89.0195 11.4621 88.8086 11.5207H88.807ZM88.559 10.8529H88.1775V11.3211H88.559C88.749 11.3211 88.8633 11.2315 88.8633 11.0868C88.8633 10.9345 88.749 10.8529 88.559 10.8529Z" fill="black"/>
</svg>
