<svg width="32" height="32" viewBox="0 0 32 32" fill="none" xmlns="http://www.w3.org/2000/svg">
<path d="M14.7605 0.881454C15.2286 -0.206712 16.7714 -0.206712 17.2395 0.881454C17.6313 1.79235 18.8389 1.98361 19.4931 1.23838C20.2745 0.348124 21.7418 0.82488 21.8507 2.00443C21.9419 2.99183 23.0313 3.5469 23.8837 3.04028C24.902 2.43507 26.1501 3.34192 25.8892 4.4974C25.6708 5.46464 26.5354 6.32918 27.5026 6.11077C28.6581 5.84985 29.5649 7.09802 28.9597 8.11631C28.4531 8.96873 29.0082 10.0581 29.9956 10.1493C31.1751 10.2582 31.6519 11.7255 30.7616 12.5069C30.0164 13.1611 30.2077 14.3687 31.1185 14.7605C32.2067 15.2286 32.2067 16.7714 31.1185 17.2395C30.2077 17.6313 30.0164 18.8389 30.7616 19.4931C31.6519 20.2745 31.1751 21.7418 29.9956 21.8507C29.0082 21.9419 28.4531 23.0313 28.9597 23.8837C29.5649 24.902 28.6581 26.1501 27.5026 25.8892C26.5354 25.6708 25.6708 26.5354 25.8892 27.5026C26.1501 28.6581 24.902 29.5649 23.8837 28.9597C23.0313 28.4531 21.9419 29.0082 21.8507 29.9956C21.7418 31.1751 20.2745 31.6519 19.4931 30.7616C18.8389 30.0164 17.6313 30.2077 17.2395 31.1185C16.7714 32.2067 15.2286 32.2067 14.7605 31.1185C14.3687 30.2077 13.1611 30.0164 12.5069 30.7616C11.7255 31.6519 10.2582 31.1751 10.1493 29.9956C10.0581 29.0082 8.96873 28.4531 8.11631 28.9597C7.09801 29.5649 5.84985 28.6581 6.11077 27.5026C6.32918 26.5354 5.46464 25.6708 4.4974 25.8892C3.34192 26.1501 2.43507 24.902 3.04028 23.8837C3.5469 23.0313 2.99183 21.9419 2.00443 21.8507C0.82488 21.7418 0.348124 20.2745 1.23838 19.4931C1.98361 18.8389 1.79235 17.6313 0.881454 17.2395C-0.206712 16.7714 -0.206712 15.2286 0.881454 14.7605C1.79235 14.3687 1.98361 13.1611 1.23838 12.5069C0.348124 11.7255 0.824879 10.2582 2.00443 10.1493C2.99183 10.0581 3.5469 8.96873 3.04028 8.11631C2.43507 7.09801 3.34192 5.84985 4.4974 6.11077C5.46464 6.32918 6.32918 5.46464 6.11077 4.4974C5.84985 3.34192 7.09801 2.43507 8.11631 3.04028C8.96873 3.5469 10.0581 2.99183 10.1493 2.00443C10.2582 0.824879 11.7255 0.348124 12.5069 1.23838C13.1611 1.98361 14.3687 1.79235 14.7605 0.881454Z" fill="black"/>
<path d="M12.4082 20.3986L8.82672 17.1775C8.38499 16.7802 8.38499 16.0877 8.82672 15.6904L9.63899 14.9599C10.0192 14.6179 10.5962 14.6179 10.9764 14.9599L12.4082 16.2476C12.7884 16.5896 13.3654 16.5896 13.7456 16.2476L20.0236 10.6014C20.4038 10.2595 20.9808 10.2595 21.361 10.6014L22.1733 11.3319C22.615 11.7292 22.615 12.4217 22.1733 12.819L13.7456 20.3986C13.3654 20.7405 12.7884 20.7406 12.4082 20.3986Z" fill="white" stroke="white"/>
</svg>
