<svg width="147" height="150" viewBox="0 0 147 150" fill="none" xmlns="http://www.w3.org/2000/svg">
<rect width="147" height="150" rx="24" fill="black" fill-opacity="0.3"/>
<path d="M33.688 75.096C33.3893 75.096 33.1067 75.0373 32.84 74.92C32.5733 74.8027 32.4027 74.6267 32.328 74.392L29.16 64.328C29.1387 64.264 29.128 64.2 29.128 64.136C29.128 63.976 29.1973 63.8373 29.336 63.72C29.4747 63.592 29.6453 63.4907 29.848 63.416C30.0613 63.3413 30.264 63.304 30.456 63.304C30.616 63.304 30.76 63.336 30.888 63.4C31.0267 63.464 31.112 63.5707 31.144 63.72L33.672 72.392L35.032 66.824C35.0853 66.632 35.208 66.488 35.4 66.392C35.6027 66.296 35.8213 66.248 36.056 66.248C36.2907 66.248 36.504 66.296 36.696 66.392C36.8987 66.488 37.0213 66.632 37.064 66.824L38.424 72.392L40.952 63.72C40.9947 63.5707 41.08 63.464 41.208 63.4C41.336 63.336 41.48 63.304 41.64 63.304C41.8427 63.304 42.0453 63.3413 42.248 63.416C42.4507 63.4907 42.6213 63.592 42.76 63.72C42.8987 63.8373 42.968 63.976 42.968 64.136C42.968 64.2 42.9573 64.264 42.936 64.328L39.768 74.392C39.6827 74.6267 39.512 74.8027 39.256 74.92C39 75.0373 38.7173 75.096 38.408 75.096C38.1093 75.096 37.8267 75.0373 37.56 74.92C37.2933 74.8027 37.1333 74.6267 37.08 74.392L36.056 70.072L35.016 74.392C34.9627 74.6267 34.8027 74.8027 34.536 74.92C34.2693 75.0373 33.9867 75.096 33.688 75.096ZM46.6965 75.144C45.9392 75.144 45.2672 75.0107 44.6805 74.744C44.1045 74.4667 43.6512 74.0827 43.3205 73.592C42.9898 73.0907 42.8245 72.5147 42.8245 71.864V70.504C42.8245 69.928 42.9792 69.4 43.2885 68.92C43.6085 68.4293 44.0298 68.04 44.5525 67.752C45.0858 67.4533 45.6778 67.304 46.3285 67.304C46.9258 67.304 47.4698 67.432 47.9605 67.688C48.4618 67.944 48.8672 68.296 49.1765 68.744C49.4858 69.192 49.6405 69.7147 49.6405 70.312C49.6405 70.7707 49.5658 71.1013 49.4165 71.304C49.2672 71.496 49.0752 71.6187 48.8405 71.672C48.6165 71.7147 48.3818 71.736 48.1365 71.736H44.8885V71.976C44.8885 72.4347 45.0592 72.808 45.4005 73.096C45.7525 73.3733 46.2058 73.512 46.7605 73.512C47.1125 73.512 47.4058 73.4587 47.6405 73.352C47.8752 73.2453 48.0778 73.144 48.2485 73.048C48.4192 72.952 48.5792 72.904 48.7285 72.904C48.8885 72.904 49.0272 72.9573 49.1445 73.064C49.2618 73.1707 49.3525 73.2987 49.4165 73.448C49.4805 73.5867 49.5125 73.7093 49.5125 73.816C49.5125 73.9973 49.3952 74.1947 49.1605 74.408C48.9365 74.6107 48.6112 74.7867 48.1845 74.936C47.7685 75.0747 47.2725 75.144 46.6965 75.144ZM44.8885 70.52H47.2245C47.4058 70.52 47.5285 70.4933 47.5925 70.44C47.6672 70.376 47.7045 70.2587 47.7045 70.088C47.7045 69.8427 47.6352 69.624 47.4965 69.432C47.3685 69.24 47.1978 69.0907 46.9845 68.984C46.7818 68.8773 46.5525 68.824 46.2965 68.824C46.0512 68.824 45.8218 68.8773 45.6085 68.984C45.3952 69.08 45.2192 69.224 45.0805 69.416C44.9525 69.5973 44.8885 69.816 44.8885 70.072V70.52ZM54.1269 75.144C53.4335 75.144 52.8042 75.0427 52.2389 74.84C51.6842 74.6373 51.2415 74.3867 50.9109 74.088C50.5909 73.7787 50.4309 73.4693 50.4309 73.16C50.4309 73.0107 50.4682 72.8507 50.5429 72.68C50.6282 72.4987 50.7402 72.3493 50.8789 72.232C51.0175 72.104 51.1722 72.04 51.3429 72.04C51.5135 72.04 51.6735 72.104 51.8229 72.232C51.9722 72.3493 52.1429 72.4933 52.3349 72.664C52.5269 72.824 52.7615 72.968 53.0389 73.096C53.3162 73.2133 53.6575 73.272 54.0629 73.272C54.3829 73.272 54.6762 73.224 54.9429 73.128C55.2202 73.0213 55.4389 72.8667 55.5989 72.664C55.7695 72.4613 55.8549 72.2 55.8549 71.88C55.8549 71.5387 55.7642 71.2507 55.5829 71.016C55.4015 70.7813 55.1562 70.5787 54.8469 70.408C54.5375 70.2373 54.2015 70.072 53.8389 69.912C53.4762 69.752 53.1082 69.5813 52.7349 69.4C52.3722 69.2187 52.0362 69 51.7269 68.744C51.4282 68.488 51.1829 68.1733 50.9909 67.8C50.8095 67.4267 50.7189 66.968 50.7189 66.424C50.7189 65.8267 50.8309 65.3253 51.0549 64.92C51.2895 64.5147 51.5935 64.1893 51.9669 63.944C52.3509 63.688 52.7722 63.5067 53.2309 63.4C53.6895 63.2827 54.1482 63.224 54.6069 63.224C54.8522 63.224 55.1402 63.2453 55.4709 63.288C55.8122 63.32 56.1482 63.384 56.4789 63.48C56.8202 63.576 57.0975 63.7093 57.3109 63.88C57.5349 64.04 57.6469 64.2533 57.6469 64.52C57.6469 64.6373 57.6149 64.7813 57.5509 64.952C57.4975 65.1227 57.4069 65.2773 57.2789 65.416C57.1615 65.5547 57.0069 65.624 56.8149 65.624C56.6442 65.624 56.4735 65.576 56.3029 65.48C56.1429 65.3733 55.9295 65.272 55.6629 65.176C55.4069 65.0693 55.0549 65.016 54.6069 65.016C54.2335 65.016 53.9082 65.064 53.6309 65.16C53.3535 65.256 53.1455 65.3947 53.0069 65.576C52.8682 65.7467 52.7989 65.9653 52.7989 66.232C52.7989 66.5093 52.8895 66.744 53.0709 66.936C53.2629 67.128 53.5082 67.2987 53.8069 67.448C54.1162 67.5973 54.4522 67.7467 54.8149 67.896C55.1775 68.0453 55.5402 68.2213 55.9029 68.424C56.2762 68.616 56.6175 68.8507 56.9269 69.128C57.2362 69.4053 57.4815 69.752 57.6629 70.168C57.8442 70.5733 57.9349 71.0747 57.9349 71.672C57.9349 72.4293 57.7695 73.0693 57.4389 73.592C57.1082 74.104 56.6549 74.4933 56.0789 74.76C55.5135 75.016 54.8629 75.144 54.1269 75.144ZM62.7903 75.144C62.0329 75.144 61.3609 75.0107 60.7743 74.744C60.1983 74.4667 59.7449 74.0827 59.4143 73.592C59.0836 73.0907 58.9183 72.5147 58.9183 71.864V70.504C58.9183 69.928 59.0729 69.4 59.3823 68.92C59.7023 68.4293 60.1236 68.04 60.6463 67.752C61.1796 67.4533 61.7716 67.304 62.4223 67.304C63.0196 67.304 63.5636 67.432 64.0543 67.688C64.5556 67.944 64.9609 68.296 65.2703 68.744C65.5796 69.192 65.7343 69.7147 65.7343 70.312C65.7343 70.7707 65.6596 71.1013 65.5103 71.304C65.3609 71.496 65.1689 71.6187 64.9343 71.672C64.7103 71.7147 64.4756 71.736 64.2303 71.736H60.9823V71.976C60.9823 72.4347 61.1529 72.808 61.4943 73.096C61.8463 73.3733 62.2996 73.512 62.8543 73.512C63.2063 73.512 63.4996 73.4587 63.7343 73.352C63.9689 73.2453 64.1716 73.144 64.3423 73.048C64.5129 72.952 64.6729 72.904 64.8223 72.904C64.9823 72.904 65.1209 72.9573 65.2383 73.064C65.3556 73.1707 65.4463 73.2987 65.5103 73.448C65.5743 73.5867 65.6063 73.7093 65.6063 73.816C65.6063 73.9973 65.4889 74.1947 65.2543 74.408C65.0303 74.6107 64.7049 74.7867 64.2783 74.936C63.8623 75.0747 63.3663 75.144 62.7903 75.144ZM60.9823 70.52H63.3183C63.4996 70.52 63.6223 70.4933 63.6863 70.44C63.7609 70.376 63.7983 70.2587 63.7983 70.088C63.7983 69.8427 63.7289 69.624 63.5903 69.432C63.4623 69.24 63.2916 69.0907 63.0783 68.984C62.8756 68.8773 62.6463 68.824 62.3903 68.824C62.1449 68.824 61.9156 68.8773 61.7023 68.984C61.4889 69.08 61.3129 69.224 61.1743 69.416C61.0463 69.5973 60.9823 69.816 60.9823 70.072V70.52ZM70.5559 75.144C69.7985 75.144 69.1265 75.0107 68.5399 74.744C67.9639 74.4667 67.5105 74.0827 67.1799 73.592C66.8492 73.0907 66.6839 72.5147 66.6839 71.864V70.504C66.6839 69.928 66.8385 69.4 67.1479 68.92C67.4679 68.4293 67.8892 68.04 68.4119 67.752C68.9452 67.4533 69.5372 67.304 70.1879 67.304C70.7852 67.304 71.3292 67.432 71.8199 67.688C72.3212 67.944 72.7265 68.296 73.0359 68.744C73.3452 69.192 73.4999 69.7147 73.4999 70.312C73.4999 70.7707 73.4252 71.1013 73.2759 71.304C73.1265 71.496 72.9345 71.6187 72.6999 71.672C72.4759 71.7147 72.2412 71.736 71.9959 71.736H68.7479V71.976C68.7479 72.4347 68.9185 72.808 69.2599 73.096C69.6119 73.3733 70.0652 73.512 70.6199 73.512C70.9719 73.512 71.2652 73.4587 71.4999 73.352C71.7345 73.2453 71.9372 73.144 72.1079 73.048C72.2785 72.952 72.4385 72.904 72.5879 72.904C72.7479 72.904 72.8865 72.9573 73.0039 73.064C73.1212 73.1707 73.2119 73.2987 73.2759 73.448C73.3399 73.5867 73.3719 73.7093 73.3719 73.816C73.3719 73.9973 73.2545 74.1947 73.0199 74.408C72.7959 74.6107 72.4705 74.7867 72.0439 74.936C71.6279 75.0747 71.1319 75.144 70.5559 75.144ZM68.7479 70.52H71.0839C71.2652 70.52 71.3879 70.4933 71.4519 70.44C71.5265 70.376 71.5639 70.2587 71.5639 70.088C71.5639 69.8427 71.4945 69.624 71.3559 69.432C71.2279 69.24 71.0572 69.0907 70.8439 68.984C70.6412 68.8773 70.4119 68.824 70.1559 68.824C69.9105 68.824 69.6812 68.8773 69.4679 68.984C69.2545 69.08 69.0785 69.224 68.9399 69.416C68.8119 69.5973 68.7479 69.816 68.7479 70.072V70.52ZM78.5295 75.096C77.8255 75.096 77.1908 74.9787 76.6255 74.744C76.0602 74.4987 75.6068 74.1093 75.2655 73.576C74.9348 73.032 74.7695 72.312 74.7695 71.416V66.984C74.7695 66.088 74.9348 65.3733 75.2655 64.84C75.6068 64.296 76.0548 63.9067 76.6095 63.672C77.1748 63.4267 77.7935 63.304 78.4655 63.304C79.2122 63.304 79.8682 63.4267 80.4335 63.672C81.0095 63.9173 81.4628 64.2693 81.7935 64.728C82.1242 65.1867 82.2895 65.736 82.2895 66.376C82.2895 66.7707 82.2042 67.0373 82.0335 67.176C81.8628 67.304 81.6015 67.368 81.2495 67.368C80.9722 67.368 80.7322 67.32 80.5295 67.224C80.3268 67.128 80.2202 66.9573 80.2095 66.712C80.1988 66.456 80.1455 66.2107 80.0495 65.976C79.9642 65.7307 79.8042 65.528 79.5695 65.368C79.3455 65.208 78.9988 65.128 78.5295 65.128C78.0068 65.128 77.5962 65.2827 77.2975 65.592C77.0095 65.8907 76.8655 66.3547 76.8655 66.984V71.416C76.8655 72.0453 77.0095 72.5147 77.2975 72.824C77.5962 73.1227 78.0068 73.272 78.5295 73.272C79.0522 73.272 79.4628 73.1227 79.7615 72.824C80.0602 72.5147 80.2095 72.0453 80.2095 71.416V70.488H78.9135C78.7108 70.488 78.5508 70.4027 78.4335 70.232C78.3268 70.0613 78.2735 69.8747 78.2735 69.672C78.2735 69.4693 78.3268 69.2827 78.4335 69.112C78.5508 68.9413 78.7108 68.856 78.9135 68.856H81.6335C81.8468 68.856 82.0068 68.9253 82.1135 69.064C82.2308 69.192 82.2895 69.352 82.2895 69.544V71.416C82.2895 72.312 82.1242 73.032 81.7935 73.576C81.4628 74.1093 81.0095 74.4987 80.4335 74.744C79.8682 74.9787 79.2335 75.096 78.5295 75.096ZM84.8088 75C84.5101 75 84.2648 74.9307 84.0728 74.792C83.8808 74.6533 83.7848 74.4987 83.7848 74.328V63.608C83.7848 63.416 83.8808 63.2613 84.0728 63.144C84.2648 63.0267 84.5101 62.968 84.8088 62.968C85.0968 62.968 85.3421 63.0267 85.5448 63.144C85.7474 63.2613 85.8488 63.416 85.8488 63.608V68.52C86.0088 68.2107 86.2594 67.9333 86.6008 67.688C86.9421 67.432 87.3634 67.304 87.8648 67.304C88.3661 67.304 88.8248 67.4533 89.2408 67.752C89.6568 68.04 89.9874 68.4293 90.2328 68.92C90.4888 69.4107 90.6168 69.9547 90.6168 70.552V74.328C90.6168 74.552 90.5101 74.7227 90.2968 74.84C90.0834 74.9467 89.8434 75 89.5768 75C89.3421 75 89.1128 74.9467 88.8888 74.84C88.6648 74.7227 88.5528 74.552 88.5528 74.328V70.552C88.5528 70.3067 88.4888 70.0773 88.3608 69.864C88.2328 69.6507 88.0621 69.4747 87.8488 69.336C87.6461 69.1867 87.4168 69.112 87.1608 69.112C86.9474 69.112 86.7394 69.1707 86.5368 69.288C86.3341 69.4053 86.1688 69.5707 86.0408 69.784C85.9128 69.9973 85.8488 70.2533 85.8488 70.552V74.328C85.8488 74.4987 85.7474 74.6533 85.5448 74.792C85.3421 74.9307 85.0968 75 84.8088 75ZM95.3274 75.144C94.7087 75.144 94.138 74.9947 93.6154 74.696C93.0927 74.3867 92.6714 73.9813 92.3514 73.48C92.0314 72.9787 91.8714 72.44 91.8714 71.864V70.552C91.8714 69.976 92.026 69.4427 92.3354 68.952C92.6447 68.4507 93.0607 68.0507 93.5834 67.752C94.1167 67.4533 94.698 67.304 95.3274 67.304C95.9567 67.304 96.5327 67.4533 97.0554 67.752C97.5887 68.04 98.01 68.4293 98.3194 68.92C98.6394 69.4107 98.7994 69.9547 98.7994 70.552V71.864C98.7994 72.4293 98.6394 72.9627 98.3194 73.464C97.9994 73.9653 97.5727 74.3707 97.0394 74.68C96.5167 74.9893 95.946 75.144 95.3274 75.144ZM95.3274 73.336C95.5834 73.336 95.818 73.2667 96.0314 73.128C96.2447 72.9893 96.4154 72.808 96.5434 72.584C96.6714 72.3493 96.7354 72.1093 96.7354 71.864V70.552C96.7354 70.3067 96.6714 70.0773 96.5434 69.864C96.4154 69.6507 96.2447 69.4747 96.0314 69.336C95.8287 69.1867 95.594 69.112 95.3274 69.112C95.0714 69.112 94.8367 69.1813 94.6234 69.32C94.41 69.4587 94.2394 69.64 94.1114 69.864C93.994 70.0773 93.9354 70.3067 93.9354 70.552V71.864C93.9354 72.1093 93.994 72.3493 94.1114 72.584C94.2394 72.808 94.41 72.9893 94.6234 73.128C94.8367 73.2667 95.0714 73.336 95.3274 73.336ZM102.593 75.144C102.059 75.144 101.569 75.08 101.121 74.952C100.683 74.8133 100.337 74.6373 100.081 74.424C99.8352 74.2107 99.7125 73.992 99.7125 73.768C99.7125 73.6507 99.7392 73.5227 99.7925 73.384C99.8565 73.2453 99.9365 73.1227 100.033 73.016C100.139 72.9093 100.262 72.856 100.401 72.856C100.55 72.856 100.705 72.92 100.865 73.048C101.035 73.1653 101.243 73.2827 101.489 73.4C101.745 73.5173 102.097 73.576 102.545 73.576C103.025 73.576 103.339 73.5013 103.489 73.352C103.649 73.2027 103.729 73.048 103.729 72.888C103.729 72.6533 103.633 72.472 103.441 72.344C103.259 72.216 103.025 72.1147 102.737 72.04C102.449 71.9547 102.139 71.864 101.809 71.768C101.489 71.672 101.185 71.5493 100.897 71.4C100.609 71.24 100.374 71.0267 100.193 70.76C100.011 70.4827 99.9205 70.1253 99.9205 69.688C99.9205 69.304 100.011 68.9307 100.193 68.568C100.374 68.2053 100.673 67.9067 101.089 67.672C101.505 67.4267 102.07 67.304 102.785 67.304C103.222 67.304 103.633 67.352 104.016 67.448C104.411 67.5333 104.731 67.656 104.977 67.816C105.222 67.976 105.345 68.152 105.345 68.344C105.345 68.44 105.313 68.568 105.249 68.728C105.185 68.8773 105.094 69.016 104.977 69.144C104.87 69.272 104.737 69.336 104.577 69.336C104.459 69.336 104.315 69.2987 104.145 69.224C103.985 69.1387 103.798 69.0587 103.585 68.984C103.371 68.9093 103.115 68.872 102.817 68.872C102.55 68.872 102.337 68.9093 102.177 68.984C102.017 69.0587 101.899 69.1493 101.825 69.256C101.75 69.3627 101.713 69.4747 101.713 69.592C101.713 69.784 101.803 69.9333 101.985 70.04C102.166 70.1467 102.401 70.2373 102.689 70.312C102.987 70.3867 103.297 70.472 103.617 70.568C103.947 70.6533 104.257 70.7813 104.545 70.952C104.843 71.1227 105.083 71.3573 105.265 71.656C105.446 71.944 105.537 72.3227 105.537 72.792C105.537 73.5067 105.281 74.0773 104.769 74.504C104.267 74.9307 103.542 75.144 102.593 75.144ZM109.712 75C108.752 75 108.016 74.792 107.504 74.376C107.003 73.96 106.752 73.2987 106.752 72.392V64.648C106.752 64.456 106.864 64.3013 107.088 64.184C107.312 64.0667 107.542 64.008 107.776 64.008C108.032 64.008 108.267 64.0667 108.48 64.184C108.704 64.3013 108.816 64.456 108.816 64.648V67.4H110.704C110.875 67.4 111.003 67.48 111.088 67.64C111.184 67.7893 111.232 67.96 111.232 68.152C111.232 68.344 111.184 68.52 111.088 68.68C111.003 68.8293 110.875 68.904 110.704 68.904H108.816V72.392C108.816 72.712 108.88 72.936 109.008 73.064C109.147 73.192 109.382 73.256 109.712 73.256H110.336C110.635 73.256 110.854 73.3467 110.992 73.528C111.142 73.7093 111.216 73.9067 111.216 74.12C111.216 74.344 111.142 74.5467 110.992 74.728C110.854 74.9093 110.635 75 110.336 75H109.712ZM114.764 75.144C114.231 75.144 113.74 75.08 113.292 74.952C112.855 74.8133 112.508 74.6373 112.252 74.424C112.007 74.2107 111.884 73.992 111.884 73.768C111.884 73.6507 111.911 73.5227 111.964 73.384C112.028 73.2453 112.108 73.1227 112.204 73.016C112.311 72.9093 112.434 72.856 112.572 72.856C112.722 72.856 112.876 72.92 113.036 73.048C113.207 73.1653 113.415 73.2827 113.66 73.4C113.916 73.5173 114.268 73.576 114.716 73.576C115.196 73.576 115.511 73.5013 115.66 73.352C115.82 73.2027 115.9 73.048 115.9 72.888C115.9 72.6533 115.804 72.472 115.612 72.344C115.431 72.216 115.196 72.1147 114.908 72.04C114.62 71.9547 114.311 71.864 113.98 71.768C113.66 71.672 113.356 71.5493 113.068 71.4C112.78 71.24 112.546 71.0267 112.364 70.76C112.183 70.4827 112.092 70.1253 112.092 69.688C112.092 69.304 112.183 68.9307 112.364 68.568C112.546 68.2053 112.844 67.9067 113.26 67.672C113.676 67.4267 114.242 67.304 114.956 67.304C115.394 67.304 115.804 67.352 116.188 67.448C116.583 67.5333 116.903 67.656 117.148 67.816C117.394 67.976 117.516 68.152 117.516 68.344C117.516 68.44 117.484 68.568 117.42 68.728C117.356 68.8773 117.266 69.016 117.148 69.144C117.042 69.272 116.908 69.336 116.748 69.336C116.631 69.336 116.487 69.2987 116.316 69.224C116.156 69.1387 115.97 69.0587 115.756 68.984C115.543 68.9093 115.287 68.872 114.988 68.872C114.722 68.872 114.508 68.9093 114.348 68.984C114.188 69.0587 114.071 69.1493 113.996 69.256C113.922 69.3627 113.884 69.4747 113.884 69.592C113.884 69.784 113.975 69.9333 114.156 70.04C114.338 70.1467 114.572 70.2373 114.86 70.312C115.159 70.3867 115.468 70.472 115.788 70.568C116.119 70.6533 116.428 70.7813 116.716 70.952C117.015 71.1227 117.255 71.3573 117.436 71.656C117.618 71.944 117.708 72.3227 117.708 72.792C117.708 73.5067 117.452 74.0773 116.94 74.504C116.439 74.9307 115.714 75.144 114.764 75.144Z" fill="white"/>
</svg>
