<svg width="148" height="148" viewBox="0 0 148 148" fill="none" xmlns="http://www.w3.org/2000/svg">
<rect width="148" height="148" rx="24" fill="black" fill-opacity="0.3"/>
<path d="M39.576 76C39.32 76 39.08 75.9467 38.856 75.84C38.6427 75.7227 38.536 75.552 38.536 75.328V71.312C38.536 71.2267 38.52 71.1573 38.488 71.104L35.176 65.376C35.1547 65.3333 35.1387 65.296 35.128 65.264C35.128 65.2213 35.128 65.1893 35.128 65.168C35.128 64.9973 35.2027 64.848 35.352 64.72C35.5013 64.592 35.6827 64.4907 35.896 64.416C36.1093 64.3413 36.312 64.304 36.504 64.304C36.6747 64.304 36.8027 64.3413 36.888 64.416C36.9733 64.48 37.0533 64.5813 37.128 64.72L39.576 69.344L42.008 64.72C42.0933 64.5813 42.1787 64.48 42.264 64.416C42.3493 64.3413 42.4773 64.304 42.648 64.304C42.84 64.304 43.0373 64.3413 43.24 64.416C43.4533 64.4907 43.6347 64.592 43.784 64.72C43.944 64.848 44.024 64.9973 44.024 65.168C44.024 65.1893 44.0187 65.2213 44.008 65.264C44.008 65.296 43.9973 65.3333 43.976 65.376L40.664 71.104C40.632 71.1573 40.616 71.2267 40.616 71.312V75.328C40.616 75.552 40.504 75.7227 40.28 75.84C40.0667 75.9467 39.832 76 39.576 76ZM46.0283 76C45.8043 76 45.5963 75.9467 45.4043 75.84C45.2123 75.7227 45.1163 75.552 45.1163 75.328V64.976C45.1163 64.752 45.2123 64.5867 45.4043 64.48C45.5963 64.3627 45.8043 64.304 46.0283 64.304H51.7243C51.9589 64.304 52.1243 64.4 52.2203 64.592C52.3269 64.784 52.3802 64.9867 52.3802 65.2C52.3802 65.456 52.3216 65.6747 52.2043 65.856C52.0976 66.0373 51.9376 66.128 51.7243 66.128H47.1963V69.328H49.6283C49.8416 69.328 50.0016 69.4133 50.1083 69.584C50.2256 69.744 50.2843 69.936 50.2843 70.16C50.2843 70.3413 50.2309 70.5227 50.1243 70.704C50.0283 70.8747 49.8629 70.96 49.6283 70.96H47.1963V74.176H51.7243C51.9376 74.176 52.0976 74.2667 52.2043 74.448C52.3216 74.6293 52.3802 74.848 52.3802 75.104C52.3802 75.3173 52.3269 75.52 52.2203 75.712C52.1243 75.904 51.9589 76 51.7243 76H46.0283ZM54.0966 76C53.9046 76 53.7073 75.9627 53.5046 75.888C53.302 75.8133 53.1313 75.712 52.9926 75.584C52.854 75.456 52.7846 75.3067 52.7846 75.136C52.7846 75.104 52.79 75.0507 52.8006 74.976L55.8886 64.912C55.9633 64.6773 56.1286 64.5013 56.3846 64.384C56.6513 64.2667 56.934 64.208 57.2326 64.208C57.542 64.208 57.8246 64.2667 58.0806 64.384C58.3366 64.5013 58.502 64.6773 58.5766 64.912L61.6646 74.976C61.686 75.0507 61.6966 75.104 61.6966 75.136C61.6966 75.296 61.622 75.4453 61.4726 75.584C61.334 75.712 61.1633 75.8133 60.9606 75.888C60.758 75.9627 60.5606 76 60.3686 76C60.198 76 60.0486 75.9733 59.9206 75.92C59.8033 75.856 59.7233 75.744 59.6806 75.584L59.0726 73.456H55.3926L54.8006 75.584C54.758 75.744 54.6726 75.856 54.5446 75.92C54.4166 75.9733 54.2673 76 54.0966 76ZM55.8406 71.824H58.6246L57.2326 66.912L55.8406 71.824ZM65.0514 76C64.7847 76 64.5447 75.9467 64.3314 75.84C64.118 75.7227 64.0114 75.552 64.0114 75.328V66.176H61.6594C61.4567 66.176 61.2967 66.08 61.1794 65.888C61.062 65.696 61.0034 65.4773 61.0034 65.232C61.0034 65.008 61.0567 64.8 61.1634 64.608C61.27 64.4053 61.4354 64.304 61.6594 64.304H68.4274C68.662 64.304 68.8274 64.4053 68.9234 64.608C69.03 64.8 69.0834 65.008 69.0834 65.232C69.0834 65.4773 69.0247 65.696 68.9074 65.888C68.8007 66.08 68.6407 66.176 68.4274 66.176H66.0914V75.328C66.0914 75.552 65.9794 75.7227 65.7554 75.84C65.542 75.9467 65.3074 76 65.0514 76ZM71.2344 76C70.9784 76 70.7384 75.9467 70.5144 75.84C70.301 75.7227 70.1944 75.552 70.1944 75.328V64.96C70.1944 64.736 70.301 64.5707 70.5144 64.464C70.7384 64.3573 70.9784 64.304 71.2344 64.304C71.4904 64.304 71.6984 64.3307 71.8584 64.384C72.029 64.4373 72.1837 64.544 72.3224 64.704C72.4717 64.8533 72.6264 65.088 72.7864 65.408L75.8744 71.376V64.96C75.8744 64.7253 75.981 64.56 76.1944 64.464C76.4184 64.3573 76.6584 64.304 76.9144 64.304C77.181 64.304 77.421 64.3573 77.6344 64.464C77.8477 64.56 77.9544 64.7253 77.9544 64.96V75.328C77.9544 75.552 77.8477 75.7227 77.6344 75.84C77.421 75.9467 77.181 76 76.9144 76C76.669 76 76.4397 75.952 76.2264 75.856C76.0237 75.76 75.8584 75.5893 75.7304 75.344L72.2744 68.912V75.328C72.2744 75.552 72.1677 75.7227 71.9544 75.84C71.741 75.9467 71.501 76 71.2344 76ZM81.3695 76.144C80.8042 76.144 80.3135 75.9733 79.8975 75.632C79.4922 75.28 79.2895 74.7413 79.2895 74.016C79.2895 73.408 79.4442 72.9333 79.7535 72.592C80.0735 72.2507 80.5108 72.0107 81.0655 71.872C81.6308 71.7333 82.2815 71.664 83.0175 71.664H83.6735V71.456C83.6735 71.2213 83.6255 70.992 83.5295 70.768C83.4442 70.544 83.3002 70.3573 83.0975 70.208C82.9055 70.0587 82.6282 69.984 82.2655 69.984C81.8602 69.984 81.5455 70.0267 81.3215 70.112C81.1082 70.1867 80.9428 70.2667 80.8255 70.352C80.7082 70.4373 80.5802 70.48 80.4415 70.48C80.2175 70.48 80.0415 70.368 79.9135 70.144C79.7962 69.92 79.7375 69.6907 79.7375 69.456C79.7375 69.232 79.8708 69.0347 80.1375 68.864C80.4148 68.6827 80.7508 68.544 81.1455 68.448C81.5402 68.352 81.9242 68.304 82.2975 68.304C83.1295 68.304 83.7962 68.4533 84.2975 68.752C84.7988 69.0507 85.1615 69.4347 85.3855 69.904C85.6202 70.3733 85.7375 70.88 85.7375 71.424V75.328C85.7375 75.52 85.6415 75.68 85.4495 75.808C85.2575 75.936 85.0175 76 84.7295 76C84.4628 76 84.2388 75.936 84.0575 75.808C83.8868 75.68 83.8015 75.52 83.8015 75.328V74.88C83.5135 75.2107 83.1722 75.504 82.7775 75.76C82.3935 76.016 81.9242 76.144 81.3695 76.144ZM82.2015 74.608C82.4255 74.608 82.6495 74.5333 82.8735 74.384C83.0975 74.2347 83.2842 74.0427 83.4335 73.808C83.5935 73.5733 83.6735 73.328 83.6735 73.072V72.736H83.4335C83.0815 72.736 82.7455 72.7573 82.4255 72.8C82.1055 72.8427 81.8442 72.9387 81.6415 73.088C81.4495 73.2267 81.3535 73.4453 81.3535 73.744C81.3535 74.0427 81.4335 74.2613 81.5935 74.4C81.7642 74.5387 81.9668 74.608 82.2015 74.608ZM90.1968 76C89.2368 76 88.5008 75.792 87.9888 75.376C87.4874 74.96 87.2368 74.2987 87.2368 73.392V65.648C87.2368 65.456 87.3488 65.3013 87.5728 65.184C87.7968 65.0667 88.0261 65.008 88.2608 65.008C88.5168 65.008 88.7514 65.0667 88.9648 65.184C89.1888 65.3013 89.3008 65.456 89.3008 65.648V68.4H91.1888C91.3594 68.4 91.4874 68.48 91.5728 68.64C91.6688 68.7893 91.7168 68.96 91.7168 69.152C91.7168 69.344 91.6688 69.52 91.5728 69.68C91.4874 69.8293 91.3594 69.904 91.1888 69.904H89.3008V73.392C89.3008 73.712 89.3648 73.936 89.4928 74.064C89.6314 74.192 89.8661 74.256 90.1968 74.256H90.8208C91.1194 74.256 91.3381 74.3467 91.4768 74.528C91.6261 74.7093 91.7008 74.9067 91.7008 75.12C91.7008 75.344 91.6261 75.5467 91.4768 75.728C91.3381 75.9093 91.1194 76 90.8208 76H90.1968ZM93.7928 66.704C93.4834 66.704 93.2168 66.6027 92.9928 66.4C92.7688 66.1867 92.6568 65.952 92.6568 65.696C92.6568 65.4187 92.7688 65.184 92.9928 64.992C93.2168 64.7893 93.4834 64.688 93.7928 64.688C94.1128 64.688 94.3794 64.7893 94.5928 64.992C94.8061 65.184 94.9128 65.4187 94.9128 65.696C94.9128 65.952 94.8061 66.1867 94.5928 66.4C94.3794 66.6027 94.1128 66.704 93.7928 66.704ZM93.7928 76C93.4941 76 93.2488 75.9307 93.0568 75.792C92.8648 75.6533 92.7688 75.4987 92.7688 75.328V69.04C92.7688 68.848 92.8648 68.6933 93.0568 68.576C93.2488 68.4587 93.4941 68.4 93.7928 68.4C94.0808 68.4 94.3261 68.4587 94.5288 68.576C94.7314 68.6933 94.8328 68.848 94.8328 69.04V75.328C94.8328 75.4987 94.7314 75.6533 94.5288 75.792C94.3261 75.9307 94.0808 76 93.7928 76ZM99.5774 76.144C98.9587 76.144 98.388 75.9947 97.8654 75.696C97.3427 75.3867 96.9214 74.9813 96.6014 74.48C96.2814 73.9787 96.1214 73.44 96.1214 72.864V71.552C96.1214 70.976 96.276 70.4427 96.5854 69.952C96.8947 69.4507 97.3107 69.0507 97.8334 68.752C98.3667 68.4533 98.948 68.304 99.5774 68.304C100.207 68.304 100.783 68.4533 101.305 68.752C101.839 69.04 102.26 69.4293 102.569 69.92C102.889 70.4107 103.049 70.9547 103.049 71.552V72.864C103.049 73.4293 102.889 73.9627 102.569 74.464C102.249 74.9653 101.823 75.3707 101.289 75.68C100.767 75.9893 100.196 76.144 99.5774 76.144ZM99.5774 74.336C99.8334 74.336 100.068 74.2667 100.281 74.128C100.495 73.9893 100.665 73.808 100.793 73.584C100.921 73.3493 100.985 73.1093 100.985 72.864V71.552C100.985 71.3067 100.921 71.0773 100.793 70.864C100.665 70.6507 100.495 70.4747 100.281 70.336C100.079 70.1867 99.844 70.112 99.5774 70.112C99.3214 70.112 99.0867 70.1813 98.8734 70.32C98.66 70.4587 98.4894 70.64 98.3614 70.864C98.244 71.0773 98.1854 71.3067 98.1854 71.552V72.864C98.1854 73.1093 98.244 73.3493 98.3614 73.584C98.4894 73.808 98.66 73.9893 98.8734 74.128C99.0867 74.2667 99.3214 74.336 99.5774 74.336ZM105.387 76C105.088 76 104.843 75.9307 104.651 75.792C104.459 75.6533 104.363 75.4987 104.363 75.328V69.04C104.363 68.848 104.459 68.6933 104.651 68.576C104.843 68.4587 105.088 68.4 105.387 68.4C105.643 68.4 105.856 68.4587 106.027 68.576C106.208 68.6933 106.299 68.848 106.299 69.04V69.52C106.459 69.2107 106.72 68.9333 107.083 68.688C107.456 68.432 107.909 68.304 108.443 68.304C108.944 68.304 109.403 68.4533 109.819 68.752C110.235 69.04 110.565 69.4293 110.811 69.92C111.067 70.4107 111.195 70.9547 111.195 71.552V75.328C111.195 75.552 111.088 75.7227 110.875 75.84C110.661 75.9467 110.421 76 110.155 76C109.92 76 109.691 75.9467 109.467 75.84C109.243 75.7227 109.131 75.552 109.131 75.328V71.552C109.131 71.3067 109.067 71.0773 108.939 70.864C108.821 70.6507 108.656 70.4747 108.443 70.336C108.229 70.1867 107.995 70.112 107.739 70.112C107.525 70.112 107.317 70.1707 107.115 70.288C106.912 70.4053 106.747 70.5707 106.619 70.784C106.491 70.9973 106.427 71.2533 106.427 71.552V75.328C106.427 75.4987 106.325 75.6533 106.123 75.792C105.92 75.9307 105.675 76 105.387 76Z" fill="white"/>
</svg>
